<mxfile host="app.diagrams.net" modified="2022-03-22T11:07:57.191Z" agent="5.0 (Macintosh; Intel Mac OS X 10_15_7) AppleWebKit/605.1.15 (KHTML, like Gecko) Version/15.4 Safari/605.1.15" etag="cvEaj3CHWhlzwPPAYFzy" version="17.1.3" type="github">
  <diagram id="GkwxvoKI0v0egCr2lqlU" name="Page-1">
    <mxGraphModel dx="1351" dy="921" grid="1" gridSize="10" guides="1" tooltips="1" connect="1" arrows="1" fold="1" page="1" pageScale="1" pageWidth="850" pageHeight="1100" math="0" shadow="0">
      <root>
        <mxCell id="0" />
        <mxCell id="1" parent="0" />
        <mxCell id="Pq7oBgW0rJb-S-d0AddA-2" style="rounded=0;orthogonalLoop=1;jettySize=auto;html=1;exitX=1;exitY=0.5;exitDx=0;exitDy=0;entryX=0;entryY=0.5;entryDx=0;entryDy=0;endArrow=none;endFill=0;fontColor=#FF0000;strokeColor=#FF0000;fillColor=#e51400;" parent="1" source="Pq7oBgW0rJb-S-d0AddA-4" target="Pq7oBgW0rJb-S-d0AddA-7" edge="1">
          <mxGeometry relative="1" as="geometry" />
        </mxCell>
        <mxCell id="Pq7oBgW0rJb-S-d0AddA-3" style="edgeStyle=none;rounded=0;orthogonalLoop=1;jettySize=auto;html=1;exitX=1;exitY=0.5;exitDx=0;exitDy=0;entryX=0;entryY=0.5;entryDx=0;entryDy=0;endArrow=none;endFill=0;fontColor=#FF0000;strokeColor=#FF0000;fillColor=#e51400;" parent="1" source="uQF2bjW9X4T5isOUZy0i-4" target="Pq7oBgW0rJb-S-d0AddA-10" edge="1">
          <mxGeometry relative="1" as="geometry" />
        </mxCell>
        <mxCell id="Pq7oBgW0rJb-S-d0AddA-4" value="" style="ellipse;whiteSpace=wrap;html=1;aspect=fixed;fontColor=#ffffff;strokeColor=#FF0000;fillColor=#FF0000;" parent="1" vertex="1">
          <mxGeometry x="745" y="143" width="30" height="30" as="geometry" />
        </mxCell>
        <mxCell id="Pq7oBgW0rJb-S-d0AddA-5" style="edgeStyle=none;rounded=0;orthogonalLoop=1;jettySize=auto;html=1;exitX=1;exitY=0.5;exitDx=0;exitDy=0;entryX=0;entryY=0.5;entryDx=0;entryDy=0;endArrow=none;endFill=0;" parent="1" source="Pq7oBgW0rJb-S-d0AddA-7" target="Pq7oBgW0rJb-S-d0AddA-12" edge="1">
          <mxGeometry relative="1" as="geometry" />
        </mxCell>
        <mxCell id="Pq7oBgW0rJb-S-d0AddA-6" style="edgeStyle=none;rounded=0;orthogonalLoop=1;jettySize=auto;html=1;exitX=1;exitY=0.5;exitDx=0;exitDy=0;entryX=0;entryY=0.5;entryDx=0;entryDy=0;endArrow=none;endFill=0;strokeColor=#FF0000;fillColor=#e51400;" parent="1" source="Pq7oBgW0rJb-S-d0AddA-7" target="Pq7oBgW0rJb-S-d0AddA-15" edge="1">
          <mxGeometry relative="1" as="geometry" />
        </mxCell>
        <mxCell id="Pq7oBgW0rJb-S-d0AddA-7" value="" style="ellipse;whiteSpace=wrap;html=1;aspect=fixed;fontColor=#ffffff;strokeColor=#FF0000;fillColor=#FF0000;" parent="1" vertex="1">
          <mxGeometry x="845" y="143" width="30" height="30" as="geometry" />
        </mxCell>
        <mxCell id="Pq7oBgW0rJb-S-d0AddA-8" style="edgeStyle=none;rounded=0;orthogonalLoop=1;jettySize=auto;html=1;exitX=1;exitY=0.5;exitDx=0;exitDy=0;endArrow=none;endFill=0;entryX=0;entryY=0.5;entryDx=0;entryDy=0;strokeColor=#FF0000;fillColor=#e51400;" parent="1" source="Pq7oBgW0rJb-S-d0AddA-10" target="Pq7oBgW0rJb-S-d0AddA-15" edge="1">
          <mxGeometry relative="1" as="geometry">
            <mxPoint x="1045" y="223" as="targetPoint" />
          </mxGeometry>
        </mxCell>
        <mxCell id="Pq7oBgW0rJb-S-d0AddA-9" style="edgeStyle=none;rounded=0;orthogonalLoop=1;jettySize=auto;html=1;exitX=1;exitY=0.5;exitDx=0;exitDy=0;entryX=0;entryY=0.5;entryDx=0;entryDy=0;endArrow=none;endFill=0;" parent="1" source="Pq7oBgW0rJb-S-d0AddA-10" target="Pq7oBgW0rJb-S-d0AddA-17" edge="1">
          <mxGeometry relative="1" as="geometry" />
        </mxCell>
        <mxCell id="Pq7oBgW0rJb-S-d0AddA-10" value="" style="ellipse;whiteSpace=wrap;html=1;aspect=fixed;fontColor=#ffffff;strokeColor=#FF0000;fillColor=#FF0000;" parent="1" vertex="1">
          <mxGeometry x="845" y="223" width="30" height="30" as="geometry" />
        </mxCell>
        <mxCell id="Pq7oBgW0rJb-S-d0AddA-11" style="edgeStyle=none;rounded=0;orthogonalLoop=1;jettySize=auto;html=1;exitX=1;exitY=0.5;exitDx=0;exitDy=0;entryX=0;entryY=0.5;entryDx=0;entryDy=0;fontSize=18;endArrow=none;endFill=0;" parent="1" source="Pq7oBgW0rJb-S-d0AddA-12" target="Pq7oBgW0rJb-S-d0AddA-28" edge="1">
          <mxGeometry relative="1" as="geometry" />
        </mxCell>
        <mxCell id="Pq7oBgW0rJb-S-d0AddA-12" value="" style="ellipse;whiteSpace=wrap;html=1;aspect=fixed;" parent="1" vertex="1">
          <mxGeometry x="975" y="103" width="30" height="30" as="geometry" />
        </mxCell>
        <mxCell id="Pq7oBgW0rJb-S-d0AddA-13" style="edgeStyle=none;rounded=0;orthogonalLoop=1;jettySize=auto;html=1;exitX=1;exitY=0.5;exitDx=0;exitDy=0;entryX=0;entryY=0.5;entryDx=0;entryDy=0;fontSize=18;endArrow=none;endFill=0;" parent="1" source="Pq7oBgW0rJb-S-d0AddA-15" target="Pq7oBgW0rJb-S-d0AddA-28" edge="1">
          <mxGeometry relative="1" as="geometry" />
        </mxCell>
        <mxCell id="Pq7oBgW0rJb-S-d0AddA-15" value="" style="ellipse;whiteSpace=wrap;html=1;aspect=fixed;strokeColor=#FF0000;fillColor=#FF0000;fontColor=#ffffff;" parent="1" vertex="1">
          <mxGeometry x="975" y="183" width="30" height="30" as="geometry" />
        </mxCell>
        <mxCell id="Pq7oBgW0rJb-S-d0AddA-16" style="edgeStyle=none;rounded=0;orthogonalLoop=1;jettySize=auto;html=1;exitX=1;exitY=0.5;exitDx=0;exitDy=0;entryX=0;entryY=0.5;entryDx=0;entryDy=0;fontSize=18;endArrow=none;endFill=0;" parent="1" source="Pq7oBgW0rJb-S-d0AddA-17" target="Pq7oBgW0rJb-S-d0AddA-28" edge="1">
          <mxGeometry relative="1" as="geometry">
            <mxPoint x="1095" y="238" as="targetPoint" />
          </mxGeometry>
        </mxCell>
        <mxCell id="Pq7oBgW0rJb-S-d0AddA-17" value="" style="ellipse;whiteSpace=wrap;html=1;aspect=fixed;" parent="1" vertex="1">
          <mxGeometry x="975" y="263" width="30" height="30" as="geometry" />
        </mxCell>
        <mxCell id="Pq7oBgW0rJb-S-d0AddA-24" style="edgeStyle=none;rounded=0;orthogonalLoop=1;jettySize=auto;html=1;exitX=1;exitY=0.5;exitDx=0;exitDy=0;entryX=0;entryY=0.5;entryDx=0;entryDy=0;fontSize=18;endArrow=none;endFill=0;" parent="1" source="Pq7oBgW0rJb-S-d0AddA-25" target="Pq7oBgW0rJb-S-d0AddA-4" edge="1">
          <mxGeometry relative="1" as="geometry" />
        </mxCell>
        <mxCell id="uQF2bjW9X4T5isOUZy0i-5" style="rounded=0;orthogonalLoop=1;jettySize=auto;html=1;exitX=1;exitY=0.5;exitDx=0;exitDy=0;entryX=0;entryY=0.5;entryDx=0;entryDy=0;fontFamily=Georgia;fontSize=27;endArrow=none;endFill=0;" parent="1" source="Pq7oBgW0rJb-S-d0AddA-25" target="uQF2bjW9X4T5isOUZy0i-4" edge="1">
          <mxGeometry relative="1" as="geometry" />
        </mxCell>
        <mxCell id="Pq7oBgW0rJb-S-d0AddA-25" value="" style="ellipse;whiteSpace=wrap;html=1;aspect=fixed;" parent="1" vertex="1">
          <mxGeometry x="645" y="183" width="30" height="30" as="geometry" />
        </mxCell>
        <mxCell id="Pq7oBgW0rJb-S-d0AddA-27" style="edgeStyle=none;rounded=0;orthogonalLoop=1;jettySize=auto;html=1;exitX=1;exitY=0.5;exitDx=0;exitDy=0;entryX=0;entryY=0.5;entryDx=0;entryDy=0;fontSize=18;endArrow=none;endFill=0;" parent="1" source="Pq7oBgW0rJb-S-d0AddA-28" target="Pq7oBgW0rJb-S-d0AddA-35" edge="1">
          <mxGeometry relative="1" as="geometry" />
        </mxCell>
        <mxCell id="Pq7oBgW0rJb-S-d0AddA-28" value="" style="ellipse;whiteSpace=wrap;html=1;aspect=fixed;" parent="1" vertex="1">
          <mxGeometry x="1095" y="183" width="30" height="30" as="geometry" />
        </mxCell>
        <mxCell id="Pq7oBgW0rJb-S-d0AddA-35" value="" style="ellipse;whiteSpace=wrap;html=1;aspect=fixed;" parent="1" vertex="1">
          <mxGeometry x="1205" y="183" width="30" height="30" as="geometry" />
        </mxCell>
        <mxCell id="uQF2bjW9X4T5isOUZy0i-2" style="edgeStyle=orthogonalEdgeStyle;rounded=0;orthogonalLoop=1;jettySize=auto;html=1;exitX=1;exitY=0.5;exitDx=0;exitDy=0;entryX=0;entryY=0.5;entryDx=0;entryDy=0;fontFamily=Georgia;fontSize=27;endArrow=none;endFill=0;" parent="1" source="uQF2bjW9X4T5isOUZy0i-1" target="Pq7oBgW0rJb-S-d0AddA-25" edge="1">
          <mxGeometry relative="1" as="geometry" />
        </mxCell>
        <mxCell id="uQF2bjW9X4T5isOUZy0i-1" value="" style="ellipse;whiteSpace=wrap;html=1;aspect=fixed;" parent="1" vertex="1">
          <mxGeometry x="555" y="183" width="30" height="30" as="geometry" />
        </mxCell>
        <mxCell id="uQF2bjW9X4T5isOUZy0i-3" value="&lt;font style=&quot;font-size: 27px&quot; face=&quot;Georgia&quot;&gt;&amp;lt;s&amp;gt;&lt;/font&gt;" style="text;html=1;align=center;verticalAlign=middle;resizable=0;points=[];autosize=1;strokeColor=none;fillColor=none;" parent="1" vertex="1">
          <mxGeometry x="585" y="173" width="60" height="20" as="geometry" />
        </mxCell>
        <mxCell id="uQF2bjW9X4T5isOUZy0i-4" value="" style="ellipse;whiteSpace=wrap;html=1;aspect=fixed;fontColor=#ffffff;strokeColor=#FF0000;fillColor=#FF0000;" parent="1" vertex="1">
          <mxGeometry x="745" y="223" width="30" height="30" as="geometry" />
        </mxCell>
        <mxCell id="uQF2bjW9X4T5isOUZy0i-6" value="&lt;font style=&quot;font-size: 27px&quot; face=&quot;Georgia&quot;&gt;we&lt;/font&gt;" style="text;html=1;align=center;verticalAlign=middle;resizable=0;points=[];autosize=1;strokeColor=none;fillColor=none;" parent="1" vertex="1">
          <mxGeometry x="680" y="148" width="50" height="20" as="geometry" />
        </mxCell>
        <mxCell id="uQF2bjW9X4T5isOUZy0i-7" value="&lt;font style=&quot;font-size: 27px&quot; face=&quot;Georgia&quot;&gt;he&lt;/font&gt;" style="text;html=1;align=center;verticalAlign=middle;resizable=0;points=[];autosize=1;strokeColor=none;fillColor=none;" parent="1" vertex="1">
          <mxGeometry x="685" y="228" width="40" height="20" as="geometry" />
        </mxCell>
        <mxCell id="uQF2bjW9X4T5isOUZy0i-8" value="&lt;font style=&quot;font-size: 27px&quot; face=&quot;Georgia&quot;&gt;see&lt;/font&gt;" style="text;html=1;align=center;verticalAlign=middle;resizable=0;points=[];autosize=1;strokeColor=none;fillColor=none;fontColor=#FF0000;" parent="1" vertex="1">
          <mxGeometry x="785" y="133" width="50" height="20" as="geometry" />
        </mxCell>
        <mxCell id="uQF2bjW9X4T5isOUZy0i-9" value="&lt;font style=&quot;font-size: 27px&quot; face=&quot;Georgia&quot;&gt;see&lt;/font&gt;" style="text;html=1;align=center;verticalAlign=middle;resizable=0;points=[];autosize=1;strokeColor=none;fillColor=none;fontColor=#FF0000;" parent="1" vertex="1">
          <mxGeometry x="785" y="238" width="50" height="20" as="geometry" />
        </mxCell>
        <mxCell id="uQF2bjW9X4T5isOUZy0i-10" value="&lt;font style=&quot;font-size: 27px&quot; face=&quot;Georgia&quot;&gt;the&lt;/font&gt;" style="text;html=1;align=center;verticalAlign=middle;resizable=0;points=[];autosize=1;strokeColor=none;fillColor=none;fontColor=#FF0000;" parent="1" vertex="1">
          <mxGeometry x="905" y="223" width="50" height="20" as="geometry" />
        </mxCell>
        <mxCell id="uQF2bjW9X4T5isOUZy0i-11" value="&lt;font style=&quot;font-size: 27px&quot; face=&quot;Georgia&quot;&gt;the&lt;/font&gt;" style="text;html=1;align=center;verticalAlign=middle;resizable=0;points=[];autosize=1;strokeColor=none;fillColor=none;fontColor=#FF0000;" parent="1" vertex="1">
          <mxGeometry x="905" y="153" width="50" height="20" as="geometry" />
        </mxCell>
        <mxCell id="uQF2bjW9X4T5isOUZy0i-12" value="&lt;font style=&quot;font-size: 27px&quot; face=&quot;Georgia&quot;&gt;these&lt;/font&gt;" style="text;html=1;align=center;verticalAlign=middle;resizable=0;points=[];autosize=1;strokeColor=none;fillColor=none;" parent="1" vertex="1">
          <mxGeometry x="884" y="103" width="80" height="20" as="geometry" />
        </mxCell>
        <mxCell id="uQF2bjW9X4T5isOUZy0i-13" value="&lt;font style=&quot;font-size: 27px&quot; face=&quot;Georgia&quot;&gt;there&lt;/font&gt;" style="text;html=1;align=center;verticalAlign=middle;resizable=0;points=[];autosize=1;strokeColor=none;fillColor=none;" parent="1" vertex="1">
          <mxGeometry x="884" y="268" width="80" height="20" as="geometry" />
        </mxCell>
        <mxCell id="uQF2bjW9X4T5isOUZy0i-14" value="&lt;font style=&quot;font-size: 27px&quot; face=&quot;Georgia&quot;&gt;bed&lt;/font&gt;" style="text;html=1;align=center;verticalAlign=middle;resizable=0;points=[];autosize=1;strokeColor=none;fillColor=none;" parent="1" vertex="1">
          <mxGeometry x="1026" y="123" width="60" height="20" as="geometry" />
        </mxCell>
        <mxCell id="uQF2bjW9X4T5isOUZy0i-15" value="&lt;font style=&quot;font-size: 27px&quot; face=&quot;Georgia&quot;&gt;bed&lt;/font&gt;" style="text;html=1;align=center;verticalAlign=middle;resizable=0;points=[];autosize=1;strokeColor=none;fillColor=none;" parent="1" vertex="1">
          <mxGeometry x="1005" y="173" width="60" height="20" as="geometry" />
        </mxCell>
        <mxCell id="uQF2bjW9X4T5isOUZy0i-18" value="&lt;font style=&quot;font-size: 27px&quot; face=&quot;Georgia&quot;&gt;&amp;lt;/s&amp;gt;&lt;/font&gt;" style="text;html=1;align=center;verticalAlign=middle;resizable=0;points=[];autosize=1;strokeColor=none;fillColor=none;" parent="1" vertex="1">
          <mxGeometry x="1125" y="168" width="70" height="20" as="geometry" />
        </mxCell>
        <mxCell id="uQF2bjW9X4T5isOUZy0i-20" style="rounded=0;orthogonalLoop=1;jettySize=auto;html=1;exitX=1;exitY=0.5;exitDx=0;exitDy=0;entryX=0;entryY=0.5;entryDx=0;entryDy=0;endArrow=none;endFill=0;fontColor=#FF0000;strokeColor=#000000;" parent="1" source="uQF2bjW9X4T5isOUZy0i-22" target="uQF2bjW9X4T5isOUZy0i-25" edge="1">
          <mxGeometry relative="1" as="geometry" />
        </mxCell>
        <mxCell id="uQF2bjW9X4T5isOUZy0i-21" style="edgeStyle=none;rounded=0;orthogonalLoop=1;jettySize=auto;html=1;exitX=1;exitY=0.5;exitDx=0;exitDy=0;entryX=0;entryY=0.5;entryDx=0;entryDy=0;endArrow=none;endFill=0;fontColor=#FF0000;strokeColor=#000000;" parent="1" source="uQF2bjW9X4T5isOUZy0i-47" target="uQF2bjW9X4T5isOUZy0i-28" edge="1">
          <mxGeometry relative="1" as="geometry" />
        </mxCell>
        <mxCell id="LwhTmWAjGXsf5G4LRFbt-48" style="edgeStyle=none;rounded=0;orthogonalLoop=1;jettySize=auto;html=1;exitX=1;exitY=0.5;exitDx=0;exitDy=0;entryX=0;entryY=0.5;entryDx=0;entryDy=0;fontColor=#FF0000;endArrow=none;endFill=0;strokeColor=#FF0000;" edge="1" parent="1" source="uQF2bjW9X4T5isOUZy0i-22" target="LwhTmWAjGXsf5G4LRFbt-44">
          <mxGeometry relative="1" as="geometry" />
        </mxCell>
        <mxCell id="uQF2bjW9X4T5isOUZy0i-22" value="" style="ellipse;whiteSpace=wrap;html=1;aspect=fixed;fillColor=#FF0000;strokeColor=#FF0000;" parent="1" vertex="1">
          <mxGeometry x="510" y="448" width="30" height="30" as="geometry" />
        </mxCell>
        <mxCell id="uQF2bjW9X4T5isOUZy0i-23" style="edgeStyle=none;rounded=0;orthogonalLoop=1;jettySize=auto;html=1;exitX=1;exitY=0.5;exitDx=0;exitDy=0;entryX=0;entryY=0.5;entryDx=0;entryDy=0;endArrow=none;endFill=0;" parent="1" source="uQF2bjW9X4T5isOUZy0i-25" target="uQF2bjW9X4T5isOUZy0i-30" edge="1">
          <mxGeometry relative="1" as="geometry" />
        </mxCell>
        <mxCell id="uQF2bjW9X4T5isOUZy0i-25" value="" style="ellipse;whiteSpace=wrap;html=1;aspect=fixed;fillColor=none;" parent="1" vertex="1">
          <mxGeometry x="609" y="416" width="30" height="30" as="geometry" />
        </mxCell>
        <mxCell id="uQF2bjW9X4T5isOUZy0i-27" style="edgeStyle=none;rounded=0;orthogonalLoop=1;jettySize=auto;html=1;exitX=1;exitY=0.5;exitDx=0;exitDy=0;entryX=0;entryY=0.5;entryDx=0;entryDy=0;endArrow=none;endFill=0;" parent="1" source="uQF2bjW9X4T5isOUZy0i-28" target="uQF2bjW9X4T5isOUZy0i-35" edge="1">
          <mxGeometry relative="1" as="geometry">
            <mxPoint x="630" y="570" as="sourcePoint" />
          </mxGeometry>
        </mxCell>
        <mxCell id="uQF2bjW9X4T5isOUZy0i-28" value="" style="ellipse;whiteSpace=wrap;html=1;aspect=fixed;fillColor=none;" parent="1" vertex="1">
          <mxGeometry x="609" y="620" width="30" height="30" as="geometry" />
        </mxCell>
        <mxCell id="LwhTmWAjGXsf5G4LRFbt-18" style="edgeStyle=none;rounded=0;orthogonalLoop=1;jettySize=auto;html=1;exitX=1;exitY=0.5;exitDx=0;exitDy=0;entryX=0;entryY=0.5;entryDx=0;entryDy=0;fontColor=#000000;endArrow=none;endFill=0;strokeColor=#000000;" edge="1" parent="1" source="uQF2bjW9X4T5isOUZy0i-30" target="LwhTmWAjGXsf5G4LRFbt-15">
          <mxGeometry relative="1" as="geometry" />
        </mxCell>
        <mxCell id="uQF2bjW9X4T5isOUZy0i-30" value="" style="ellipse;whiteSpace=wrap;html=1;aspect=fixed;" parent="1" vertex="1">
          <mxGeometry x="730" y="416" width="30" height="30" as="geometry" />
        </mxCell>
        <mxCell id="uQF2bjW9X4T5isOUZy0i-31" style="edgeStyle=none;rounded=0;orthogonalLoop=1;jettySize=auto;html=1;exitX=1;exitY=0.5;exitDx=0;exitDy=0;entryX=0;entryY=0.5;entryDx=0;entryDy=0;fontSize=18;endArrow=none;endFill=0;fontColor=#FF0000;strokeColor=#FF0000;" parent="1" source="uQF2bjW9X4T5isOUZy0i-33" target="uQF2bjW9X4T5isOUZy0i-40" edge="1">
          <mxGeometry relative="1" as="geometry" />
        </mxCell>
        <mxCell id="uQF2bjW9X4T5isOUZy0i-33" value="" style="ellipse;whiteSpace=wrap;html=1;aspect=fixed;fontColor=#FF0000;fillColor=#FF0000;strokeColor=#FF0000;" parent="1" vertex="1">
          <mxGeometry x="730" y="474" width="30" height="30" as="geometry" />
        </mxCell>
        <mxCell id="uQF2bjW9X4T5isOUZy0i-34" style="edgeStyle=none;rounded=0;orthogonalLoop=1;jettySize=auto;html=1;exitX=1;exitY=0.5;exitDx=0;exitDy=0;entryX=0;entryY=0.5;entryDx=0;entryDy=0;fontSize=18;endArrow=none;endFill=0;" parent="1" source="uQF2bjW9X4T5isOUZy0i-35" target="LwhTmWAjGXsf5G4LRFbt-22" edge="1">
          <mxGeometry relative="1" as="geometry">
            <mxPoint x="850" y="555.0000000000002" as="targetPoint" />
          </mxGeometry>
        </mxCell>
        <mxCell id="uQF2bjW9X4T5isOUZy0i-35" value="" style="ellipse;whiteSpace=wrap;html=1;aspect=fixed;" parent="1" vertex="1">
          <mxGeometry x="730" y="620" width="30" height="30" as="geometry" />
        </mxCell>
        <mxCell id="uQF2bjW9X4T5isOUZy0i-36" style="edgeStyle=none;rounded=0;orthogonalLoop=1;jettySize=auto;html=1;exitX=1;exitY=0.5;exitDx=0;exitDy=0;entryX=0;entryY=0.5;entryDx=0;entryDy=0;fontSize=18;endArrow=none;endFill=0;" parent="1" source="uQF2bjW9X4T5isOUZy0i-38" target="uQF2bjW9X4T5isOUZy0i-22" edge="1">
          <mxGeometry relative="1" as="geometry" />
        </mxCell>
        <mxCell id="uQF2bjW9X4T5isOUZy0i-37" style="rounded=0;orthogonalLoop=1;jettySize=auto;html=1;exitX=1;exitY=0.5;exitDx=0;exitDy=0;entryX=0;entryY=0.5;entryDx=0;entryDy=0;fontFamily=Georgia;fontSize=27;endArrow=none;endFill=0;" parent="1" source="uQF2bjW9X4T5isOUZy0i-38" target="uQF2bjW9X4T5isOUZy0i-47" edge="1">
          <mxGeometry relative="1" as="geometry" />
        </mxCell>
        <mxCell id="uQF2bjW9X4T5isOUZy0i-38" value="" style="ellipse;whiteSpace=wrap;html=1;aspect=fixed;" parent="1" vertex="1">
          <mxGeometry x="410" y="520" width="30" height="30" as="geometry" />
        </mxCell>
        <mxCell id="uQF2bjW9X4T5isOUZy0i-39" style="edgeStyle=none;rounded=0;orthogonalLoop=1;jettySize=auto;html=1;exitX=1;exitY=0.5;exitDx=0;exitDy=0;entryX=0;entryY=0.5;entryDx=0;entryDy=0;fontSize=18;endArrow=none;endFill=0;fontColor=#FF0000;strokeColor=#FF0000;" parent="1" source="uQF2bjW9X4T5isOUZy0i-40" target="uQF2bjW9X4T5isOUZy0i-43" edge="1">
          <mxGeometry relative="1" as="geometry" />
        </mxCell>
        <mxCell id="uQF2bjW9X4T5isOUZy0i-40" value="" style="ellipse;whiteSpace=wrap;html=1;aspect=fixed;fontColor=#FF0000;fillColor=#FF0000;strokeColor=#FF0000;" parent="1" vertex="1">
          <mxGeometry x="854" y="474" width="30" height="30" as="geometry" />
        </mxCell>
        <mxCell id="LwhTmWAjGXsf5G4LRFbt-53" style="edgeStyle=none;rounded=0;orthogonalLoop=1;jettySize=auto;html=1;exitX=1;exitY=0.5;exitDx=0;exitDy=0;entryX=0;entryY=0.5;entryDx=0;entryDy=0;fontColor=#FF0000;endArrow=none;endFill=0;strokeColor=#FF0000;" edge="1" parent="1" source="uQF2bjW9X4T5isOUZy0i-43" target="LwhTmWAjGXsf5G4LRFbt-28">
          <mxGeometry relative="1" as="geometry" />
        </mxCell>
        <mxCell id="uQF2bjW9X4T5isOUZy0i-43" value="" style="ellipse;whiteSpace=wrap;html=1;aspect=fixed;fontColor=#FF0000;fillColor=#FF0000;strokeColor=#FF0000;" parent="1" vertex="1">
          <mxGeometry x="996" y="474" width="30" height="30" as="geometry" />
        </mxCell>
        <mxCell id="uQF2bjW9X4T5isOUZy0i-46" value="&lt;span style=&quot;font-family: &amp;#34;georgia&amp;#34; ; font-size: 27px&quot;&gt;&amp;lt;/s&amp;gt;\&amp;lt;s&amp;gt;&lt;/span&gt;" style="text;html=1;align=center;verticalAlign=middle;resizable=0;points=[];autosize=1;strokeColor=none;fillColor=none;" parent="1" vertex="1">
          <mxGeometry x="280" y="525" width="130" height="20" as="geometry" />
        </mxCell>
        <mxCell id="LwhTmWAjGXsf5G4LRFbt-50" style="edgeStyle=none;rounded=0;orthogonalLoop=1;jettySize=auto;html=1;exitX=1;exitY=0.5;exitDx=0;exitDy=0;entryX=0;entryY=0.5;entryDx=0;entryDy=0;fontColor=#FF0000;endArrow=none;endFill=0;strokeColor=#FF0000;" edge="1" parent="1" source="uQF2bjW9X4T5isOUZy0i-47" target="LwhTmWAjGXsf5G4LRFbt-45">
          <mxGeometry relative="1" as="geometry" />
        </mxCell>
        <mxCell id="uQF2bjW9X4T5isOUZy0i-47" value="" style="ellipse;whiteSpace=wrap;html=1;aspect=fixed;fillColor=#FF0000;strokeColor=#FF0000;" parent="1" vertex="1">
          <mxGeometry x="510" y="591" width="30" height="30" as="geometry" />
        </mxCell>
        <mxCell id="uQF2bjW9X4T5isOUZy0i-48" value="&lt;font style=&quot;font-size: 27px&quot; face=&quot;Georgia&quot;&gt;we&lt;/font&gt;" style="text;html=1;align=center;verticalAlign=middle;resizable=0;points=[];autosize=1;strokeColor=none;fillColor=none;" parent="1" vertex="1">
          <mxGeometry x="444" y="474" width="50" height="20" as="geometry" />
        </mxCell>
        <mxCell id="uQF2bjW9X4T5isOUZy0i-49" value="&lt;font style=&quot;font-size: 27px&quot; face=&quot;Georgia&quot;&gt;he&lt;/font&gt;" style="text;html=1;align=center;verticalAlign=middle;resizable=0;points=[];autosize=1;strokeColor=none;fillColor=none;" parent="1" vertex="1">
          <mxGeometry x="449" y="565" width="40" height="20" as="geometry" />
        </mxCell>
        <mxCell id="uQF2bjW9X4T5isOUZy0i-50" value="&lt;font style=&quot;font-size: 27px&quot; face=&quot;Georgia&quot;&gt;see&lt;/font&gt;" style="text;html=1;align=center;verticalAlign=middle;resizable=0;points=[];autosize=1;fillColor=none;" parent="1" vertex="1">
          <mxGeometry x="545" y="421" width="50" height="20" as="geometry" />
        </mxCell>
        <mxCell id="uQF2bjW9X4T5isOUZy0i-51" value="&lt;font style=&quot;font-size: 27px&quot; face=&quot;Georgia&quot;&gt;see&lt;/font&gt;" style="text;html=1;align=center;verticalAlign=middle;resizable=0;points=[];autosize=1;fillColor=none;" parent="1" vertex="1">
          <mxGeometry x="540" y="621" width="50" height="20" as="geometry" />
        </mxCell>
        <mxCell id="uQF2bjW9X4T5isOUZy0i-52" value="&lt;font style=&quot;font-size: 27px&quot; face=&quot;Georgia&quot;&gt;the&lt;/font&gt;" style="text;html=1;align=center;verticalAlign=middle;resizable=0;points=[];autosize=1;strokeColor=none;fillColor=none;fontColor=#FF0000;" parent="1" vertex="1">
          <mxGeometry x="660" y="551" width="50" height="20" as="geometry" />
        </mxCell>
        <mxCell id="uQF2bjW9X4T5isOUZy0i-53" value="&lt;font style=&quot;font-size: 27px&quot; face=&quot;Georgia&quot;&gt;the&lt;/font&gt;" style="text;html=1;align=center;verticalAlign=middle;resizable=0;points=[];autosize=1;strokeColor=none;fillColor=none;fontColor=#FF0000;" parent="1" vertex="1">
          <mxGeometry x="660" y="463" width="50" height="20" as="geometry" />
        </mxCell>
        <mxCell id="uQF2bjW9X4T5isOUZy0i-54" value="&lt;font style=&quot;font-size: 27px&quot; face=&quot;Georgia&quot;&gt;these&lt;/font&gt;" style="text;html=1;align=center;verticalAlign=middle;resizable=0;points=[];autosize=1;strokeColor=none;fillColor=none;" parent="1" vertex="1">
          <mxGeometry x="645" y="406" width="80" height="20" as="geometry" />
        </mxCell>
        <mxCell id="uQF2bjW9X4T5isOUZy0i-55" value="&lt;font style=&quot;font-size: 27px&quot; face=&quot;Georgia&quot;&gt;there&lt;/font&gt;" style="text;html=1;align=center;verticalAlign=middle;resizable=0;points=[];autosize=1;strokeColor=none;fillColor=none;" parent="1" vertex="1">
          <mxGeometry x="645" y="610" width="80" height="20" as="geometry" />
        </mxCell>
        <mxCell id="uQF2bjW9X4T5isOUZy0i-56" value="&lt;font style=&quot;font-size: 27px&quot; face=&quot;Georgia&quot;&gt;bed&lt;/font&gt;" style="text;html=1;align=center;verticalAlign=middle;resizable=0;points=[];autosize=1;strokeColor=none;fillColor=none;fontColor=#000000;" parent="1" vertex="1">
          <mxGeometry x="775" y="406" width="60" height="20" as="geometry" />
        </mxCell>
        <mxCell id="uQF2bjW9X4T5isOUZy0i-57" value="&lt;font style=&quot;font-size: 27px&quot; face=&quot;Georgia&quot;&gt;bed&lt;/font&gt;" style="text;html=1;align=center;verticalAlign=middle;resizable=0;points=[];autosize=1;strokeColor=none;fillColor=none;fontColor=#FF0000;" parent="1" vertex="1">
          <mxGeometry x="775" y="463" width="60" height="20" as="geometry" />
        </mxCell>
        <mxCell id="uQF2bjW9X4T5isOUZy0i-60" value="&lt;font style=&quot;font-size: 27px&quot; face=&quot;Georgia&quot;&gt;&amp;lt;/s&amp;gt;\&amp;lt;s&amp;gt;&lt;/font&gt;" style="text;html=1;align=center;verticalAlign=middle;resizable=0;points=[];autosize=1;strokeColor=none;fillColor=none;fontColor=#000000;" parent="1" vertex="1">
          <mxGeometry x="873" y="405" width="130" height="20" as="geometry" />
        </mxCell>
        <mxCell id="uQF2bjW9X4T5isOUZy0i-73" style="edgeStyle=none;rounded=0;orthogonalLoop=1;jettySize=auto;html=1;exitX=1;exitY=0.5;exitDx=0;exitDy=0;entryX=0;entryY=0.5;entryDx=0;entryDy=0;fontSize=18;endArrow=none;endFill=0;" parent="1" source="uQF2bjW9X4T5isOUZy0i-75" target="uQF2bjW9X4T5isOUZy0i-82" edge="1">
          <mxGeometry relative="1" as="geometry" />
        </mxCell>
        <mxCell id="uQF2bjW9X4T5isOUZy0i-74" style="edgeStyle=none;rounded=0;orthogonalLoop=1;jettySize=auto;html=1;exitX=1;exitY=0.5;exitDx=0;exitDy=0;entryX=0;entryY=0.5;entryDx=0;entryDy=0;fontSize=18;endArrow=none;endFill=0;" parent="1" source="uQF2bjW9X4T5isOUZy0i-75" target="uQF2bjW9X4T5isOUZy0i-84" edge="1">
          <mxGeometry relative="1" as="geometry" />
        </mxCell>
        <mxCell id="uQF2bjW9X4T5isOUZy0i-75" value="" style="ellipse;whiteSpace=wrap;html=1;aspect=fixed;fillColor=none;" parent="1" vertex="1">
          <mxGeometry x="1190" y="519" width="30" height="30" as="geometry" />
        </mxCell>
        <mxCell id="uQF2bjW9X4T5isOUZy0i-81" style="edgeStyle=none;rounded=0;orthogonalLoop=1;jettySize=auto;html=1;exitX=1;exitY=0.5;exitDx=0;exitDy=0;entryX=0;entryY=0.5;entryDx=0;entryDy=0;fontSize=18;endArrow=none;endFill=0;" parent="1" source="uQF2bjW9X4T5isOUZy0i-82" target="uQF2bjW9X4T5isOUZy0i-85" edge="1">
          <mxGeometry relative="1" as="geometry" />
        </mxCell>
        <mxCell id="uQF2bjW9X4T5isOUZy0i-82" value="" style="ellipse;whiteSpace=wrap;html=1;aspect=fixed;" parent="1" vertex="1">
          <mxGeometry x="1310" y="480" width="30" height="30" as="geometry" />
        </mxCell>
        <mxCell id="uQF2bjW9X4T5isOUZy0i-83" style="edgeStyle=none;rounded=0;orthogonalLoop=1;jettySize=auto;html=1;exitX=1;exitY=0.5;exitDx=0;exitDy=0;fontSize=18;endArrow=none;endFill=0;entryX=0;entryY=0.5;entryDx=0;entryDy=0;" parent="1" source="uQF2bjW9X4T5isOUZy0i-84" target="uQF2bjW9X4T5isOUZy0i-85" edge="1">
          <mxGeometry relative="1" as="geometry">
            <mxPoint x="1570" y="560" as="targetPoint" />
          </mxGeometry>
        </mxCell>
        <mxCell id="uQF2bjW9X4T5isOUZy0i-84" value="" style="ellipse;whiteSpace=wrap;html=1;aspect=fixed;" parent="1" vertex="1">
          <mxGeometry x="1310" y="555" width="30" height="30" as="geometry" />
        </mxCell>
        <mxCell id="uQF2bjW9X4T5isOUZy0i-85" value="" style="ellipse;whiteSpace=wrap;html=1;aspect=fixed;" parent="1" vertex="1">
          <mxGeometry x="1464" y="520" width="30" height="30" as="geometry" />
        </mxCell>
        <mxCell id="uQF2bjW9X4T5isOUZy0i-99" value="&lt;font style=&quot;font-size: 27px&quot; face=&quot;Georgia&quot;&gt;rest&lt;/font&gt;" style="text;html=1;align=center;verticalAlign=middle;resizable=0;points=[];autosize=1;strokeColor=none;fillColor=none;" parent="1" vertex="1">
          <mxGeometry x="1225" y="485" width="60" height="20" as="geometry" />
        </mxCell>
        <mxCell id="uQF2bjW9X4T5isOUZy0i-100" value="&lt;font style=&quot;font-size: 27px&quot; face=&quot;Georgia&quot;&gt;reset&lt;/font&gt;" style="text;html=1;align=center;verticalAlign=middle;resizable=0;points=[];autosize=1;strokeColor=none;fillColor=none;" parent="1" vertex="1">
          <mxGeometry x="1230" y="565" width="70" height="20" as="geometry" />
        </mxCell>
        <mxCell id="uQF2bjW9X4T5isOUZy0i-104" value="&lt;font style=&quot;font-size: 27px&quot; face=&quot;Georgia&quot;&gt;&amp;lt;/s&amp;gt;\&amp;lt;s&amp;gt;&lt;/font&gt;" style="text;html=1;align=center;verticalAlign=middle;resizable=0;points=[];autosize=1;strokeColor=none;fillColor=none;" parent="1" vertex="1">
          <mxGeometry x="1348" y="475" width="130" height="20" as="geometry" />
        </mxCell>
        <mxCell id="uQF2bjW9X4T5isOUZy0i-105" value="&lt;font style=&quot;font-size: 27px&quot; face=&quot;Georgia&quot;&gt;&amp;lt;/s&amp;gt;\&amp;lt;s&amp;gt;&lt;/font&gt;" style="text;html=1;align=center;verticalAlign=middle;resizable=0;points=[];autosize=1;strokeColor=none;fillColor=none;" parent="1" vertex="1">
          <mxGeometry x="1348" y="575" width="130" height="20" as="geometry" />
        </mxCell>
        <mxCell id="uQF2bjW9X4T5isOUZy0i-108" value="&lt;font style=&quot;font-size: 27px&quot; face=&quot;Georgia&quot;&gt;bed&lt;/font&gt;" style="text;html=1;align=center;verticalAlign=middle;resizable=0;points=[];autosize=1;strokeColor=none;fillColor=none;" parent="1" vertex="1">
          <mxGeometry x="1026" y="253" width="60" height="20" as="geometry" />
        </mxCell>
        <mxCell id="uQF2bjW9X4T5isOUZy0i-114" style="rounded=0;orthogonalLoop=1;jettySize=auto;html=1;exitX=1;exitY=0.5;exitDx=0;exitDy=0;entryX=0;entryY=0.5;entryDx=0;entryDy=0;endArrow=none;endFill=0;fontColor=#000000;strokeColor=#000000;fillColor=#e51400;" parent="1" source="uQF2bjW9X4T5isOUZy0i-116" target="uQF2bjW9X4T5isOUZy0i-119" edge="1">
          <mxGeometry relative="1" as="geometry" />
        </mxCell>
        <mxCell id="uQF2bjW9X4T5isOUZy0i-115" style="edgeStyle=none;rounded=0;orthogonalLoop=1;jettySize=auto;html=1;exitX=1;exitY=0.5;exitDx=0;exitDy=0;entryX=0;entryY=0.5;entryDx=0;entryDy=0;endArrow=none;endFill=0;fontColor=#000000;strokeColor=#000000;fillColor=#e51400;" parent="1" source="uQF2bjW9X4T5isOUZy0i-138" target="uQF2bjW9X4T5isOUZy0i-122" edge="1">
          <mxGeometry relative="1" as="geometry" />
        </mxCell>
        <mxCell id="uQF2bjW9X4T5isOUZy0i-116" value="" style="ellipse;whiteSpace=wrap;html=1;aspect=fixed;fontColor=#000000;strokeColor=#000000;fillColor=none;" parent="1" vertex="1">
          <mxGeometry x="235" y="890" width="30" height="30" as="geometry" />
        </mxCell>
        <mxCell id="uQF2bjW9X4T5isOUZy0i-117" style="edgeStyle=none;rounded=0;orthogonalLoop=1;jettySize=auto;html=1;exitX=1;exitY=0.5;exitDx=0;exitDy=0;entryX=0;entryY=0.5;entryDx=0;entryDy=0;endArrow=none;endFill=0;" parent="1" source="uQF2bjW9X4T5isOUZy0i-119" target="uQF2bjW9X4T5isOUZy0i-124" edge="1">
          <mxGeometry relative="1" as="geometry" />
        </mxCell>
        <mxCell id="uQF2bjW9X4T5isOUZy0i-118" style="edgeStyle=none;rounded=0;orthogonalLoop=1;jettySize=auto;html=1;exitX=1;exitY=0.5;exitDx=0;exitDy=0;entryX=0;entryY=0.5;entryDx=0;entryDy=0;endArrow=none;endFill=0;strokeColor=#000000;fillColor=#e51400;fontColor=#000000;" parent="1" source="uQF2bjW9X4T5isOUZy0i-119" target="uQF2bjW9X4T5isOUZy0i-126" edge="1">
          <mxGeometry relative="1" as="geometry" />
        </mxCell>
        <mxCell id="uQF2bjW9X4T5isOUZy0i-119" value="" style="ellipse;whiteSpace=wrap;html=1;aspect=fixed;fontColor=#000000;strokeColor=#000000;fillColor=none;" parent="1" vertex="1">
          <mxGeometry x="335" y="890" width="30" height="30" as="geometry" />
        </mxCell>
        <mxCell id="uQF2bjW9X4T5isOUZy0i-120" style="edgeStyle=none;rounded=0;orthogonalLoop=1;jettySize=auto;html=1;exitX=1;exitY=0.5;exitDx=0;exitDy=0;endArrow=none;endFill=0;entryX=0;entryY=0.5;entryDx=0;entryDy=0;strokeColor=#000000;fillColor=#e51400;fontColor=#000000;" parent="1" source="uQF2bjW9X4T5isOUZy0i-122" target="uQF2bjW9X4T5isOUZy0i-126" edge="1">
          <mxGeometry relative="1" as="geometry">
            <mxPoint x="535" y="970" as="targetPoint" />
          </mxGeometry>
        </mxCell>
        <mxCell id="uQF2bjW9X4T5isOUZy0i-121" style="edgeStyle=none;rounded=0;orthogonalLoop=1;jettySize=auto;html=1;exitX=1;exitY=0.5;exitDx=0;exitDy=0;entryX=0;entryY=0.5;entryDx=0;entryDy=0;endArrow=none;endFill=0;" parent="1" source="uQF2bjW9X4T5isOUZy0i-122" target="uQF2bjW9X4T5isOUZy0i-128" edge="1">
          <mxGeometry relative="1" as="geometry" />
        </mxCell>
        <mxCell id="uQF2bjW9X4T5isOUZy0i-122" value="" style="ellipse;whiteSpace=wrap;html=1;aspect=fixed;fontColor=#000000;strokeColor=#000000;fillColor=none;" parent="1" vertex="1">
          <mxGeometry x="335" y="970" width="30" height="30" as="geometry" />
        </mxCell>
        <mxCell id="uQF2bjW9X4T5isOUZy0i-123" style="edgeStyle=none;rounded=0;orthogonalLoop=1;jettySize=auto;html=1;exitX=1;exitY=0.5;exitDx=0;exitDy=0;entryX=0;entryY=0.5;entryDx=0;entryDy=0;fontSize=18;endArrow=none;endFill=0;" parent="1" source="uQF2bjW9X4T5isOUZy0i-124" target="uQF2bjW9X4T5isOUZy0i-133" edge="1">
          <mxGeometry relative="1" as="geometry" />
        </mxCell>
        <mxCell id="uQF2bjW9X4T5isOUZy0i-124" value="" style="ellipse;whiteSpace=wrap;html=1;aspect=fixed;" parent="1" vertex="1">
          <mxGeometry x="465" y="850" width="30" height="30" as="geometry" />
        </mxCell>
        <mxCell id="uQF2bjW9X4T5isOUZy0i-125" style="edgeStyle=none;rounded=0;orthogonalLoop=1;jettySize=auto;html=1;exitX=1;exitY=0.5;exitDx=0;exitDy=0;entryX=0;entryY=0.5;entryDx=0;entryDy=0;fontSize=18;endArrow=none;endFill=0;" parent="1" source="uQF2bjW9X4T5isOUZy0i-126" target="uQF2bjW9X4T5isOUZy0i-133" edge="1">
          <mxGeometry relative="1" as="geometry" />
        </mxCell>
        <mxCell id="uQF2bjW9X4T5isOUZy0i-126" value="" style="ellipse;whiteSpace=wrap;html=1;aspect=fixed;strokeColor=#000000;fillColor=none;fontColor=#000000;" parent="1" vertex="1">
          <mxGeometry x="465" y="930" width="30" height="30" as="geometry" />
        </mxCell>
        <mxCell id="uQF2bjW9X4T5isOUZy0i-127" style="edgeStyle=none;rounded=0;orthogonalLoop=1;jettySize=auto;html=1;exitX=1;exitY=0.5;exitDx=0;exitDy=0;entryX=0;entryY=0.5;entryDx=0;entryDy=0;fontSize=18;endArrow=none;endFill=0;" parent="1" source="uQF2bjW9X4T5isOUZy0i-128" target="uQF2bjW9X4T5isOUZy0i-133" edge="1">
          <mxGeometry relative="1" as="geometry">
            <mxPoint x="585" y="985" as="targetPoint" />
          </mxGeometry>
        </mxCell>
        <mxCell id="uQF2bjW9X4T5isOUZy0i-128" value="" style="ellipse;whiteSpace=wrap;html=1;aspect=fixed;" parent="1" vertex="1">
          <mxGeometry x="465" y="1010" width="30" height="30" as="geometry" />
        </mxCell>
        <mxCell id="uQF2bjW9X4T5isOUZy0i-129" style="edgeStyle=none;rounded=0;orthogonalLoop=1;jettySize=auto;html=1;exitX=1;exitY=0.5;exitDx=0;exitDy=0;entryX=0;entryY=0.5;entryDx=0;entryDy=0;fontSize=18;endArrow=none;endFill=0;" parent="1" source="uQF2bjW9X4T5isOUZy0i-131" target="uQF2bjW9X4T5isOUZy0i-116" edge="1">
          <mxGeometry relative="1" as="geometry" />
        </mxCell>
        <mxCell id="uQF2bjW9X4T5isOUZy0i-130" style="rounded=0;orthogonalLoop=1;jettySize=auto;html=1;exitX=1;exitY=0.5;exitDx=0;exitDy=0;entryX=0;entryY=0.5;entryDx=0;entryDy=0;fontFamily=Georgia;fontSize=27;endArrow=none;endFill=0;" parent="1" source="uQF2bjW9X4T5isOUZy0i-131" target="uQF2bjW9X4T5isOUZy0i-138" edge="1">
          <mxGeometry relative="1" as="geometry" />
        </mxCell>
        <mxCell id="uQF2bjW9X4T5isOUZy0i-131" value="" style="ellipse;whiteSpace=wrap;html=1;aspect=fixed;" parent="1" vertex="1">
          <mxGeometry x="135" y="930" width="30" height="30" as="geometry" />
        </mxCell>
        <mxCell id="uQF2bjW9X4T5isOUZy0i-132" style="edgeStyle=none;rounded=0;orthogonalLoop=1;jettySize=auto;html=1;exitX=1;exitY=0.5;exitDx=0;exitDy=0;entryX=0;entryY=0.5;entryDx=0;entryDy=0;fontSize=18;endArrow=none;endFill=0;" parent="1" source="uQF2bjW9X4T5isOUZy0i-133" target="uQF2bjW9X4T5isOUZy0i-134" edge="1">
          <mxGeometry relative="1" as="geometry" />
        </mxCell>
        <mxCell id="uQF2bjW9X4T5isOUZy0i-133" value="" style="ellipse;whiteSpace=wrap;html=1;aspect=fixed;" parent="1" vertex="1">
          <mxGeometry x="585" y="930" width="30" height="30" as="geometry" />
        </mxCell>
        <mxCell id="uQF2bjW9X4T5isOUZy0i-134" value="" style="ellipse;whiteSpace=wrap;html=1;aspect=fixed;" parent="1" vertex="1">
          <mxGeometry x="695" y="930" width="30" height="30" as="geometry" />
        </mxCell>
        <mxCell id="uQF2bjW9X4T5isOUZy0i-135" style="edgeStyle=orthogonalEdgeStyle;rounded=0;orthogonalLoop=1;jettySize=auto;html=1;exitX=1;exitY=0.5;exitDx=0;exitDy=0;entryX=0;entryY=0.5;entryDx=0;entryDy=0;fontFamily=Georgia;fontSize=27;endArrow=none;endFill=0;" parent="1" source="uQF2bjW9X4T5isOUZy0i-136" target="uQF2bjW9X4T5isOUZy0i-131" edge="1">
          <mxGeometry relative="1" as="geometry" />
        </mxCell>
        <mxCell id="uQF2bjW9X4T5isOUZy0i-136" value="" style="ellipse;whiteSpace=wrap;html=1;aspect=fixed;" parent="1" vertex="1">
          <mxGeometry x="45" y="930" width="30" height="30" as="geometry" />
        </mxCell>
        <mxCell id="uQF2bjW9X4T5isOUZy0i-137" value="&lt;font style=&quot;font-size: 27px&quot; face=&quot;Georgia&quot;&gt;&amp;lt;s&amp;gt;&lt;/font&gt;" style="text;html=1;align=center;verticalAlign=middle;resizable=0;points=[];autosize=1;strokeColor=none;fillColor=none;" parent="1" vertex="1">
          <mxGeometry x="75" y="920" width="60" height="20" as="geometry" />
        </mxCell>
        <mxCell id="uQF2bjW9X4T5isOUZy0i-138" value="" style="ellipse;whiteSpace=wrap;html=1;aspect=fixed;fontColor=#000000;strokeColor=#000000;fillColor=none;" parent="1" vertex="1">
          <mxGeometry x="235" y="970" width="30" height="30" as="geometry" />
        </mxCell>
        <mxCell id="uQF2bjW9X4T5isOUZy0i-139" value="&lt;font style=&quot;font-size: 27px&quot; face=&quot;Georgia&quot;&gt;we&lt;/font&gt;" style="text;html=1;align=center;verticalAlign=middle;resizable=0;points=[];autosize=1;strokeColor=none;fillColor=none;" parent="1" vertex="1">
          <mxGeometry x="170" y="895" width="50" height="20" as="geometry" />
        </mxCell>
        <mxCell id="uQF2bjW9X4T5isOUZy0i-140" value="&lt;font style=&quot;font-size: 27px&quot; face=&quot;Georgia&quot;&gt;he&lt;/font&gt;" style="text;html=1;align=center;verticalAlign=middle;resizable=0;points=[];autosize=1;strokeColor=none;fillColor=none;" parent="1" vertex="1">
          <mxGeometry x="175" y="975" width="40" height="20" as="geometry" />
        </mxCell>
        <mxCell id="uQF2bjW9X4T5isOUZy0i-141" value="&lt;font style=&quot;font-size: 27px&quot; face=&quot;Georgia&quot;&gt;see&lt;/font&gt;" style="text;html=1;align=center;verticalAlign=middle;resizable=0;points=[];autosize=1;strokeColor=none;fillColor=none;fontColor=#000000;" parent="1" vertex="1">
          <mxGeometry x="275" y="880" width="50" height="20" as="geometry" />
        </mxCell>
        <mxCell id="uQF2bjW9X4T5isOUZy0i-142" value="&lt;font style=&quot;font-size: 27px&quot; face=&quot;Georgia&quot;&gt;see&lt;/font&gt;" style="text;html=1;align=center;verticalAlign=middle;resizable=0;points=[];autosize=1;strokeColor=none;fillColor=none;fontColor=#000000;" parent="1" vertex="1">
          <mxGeometry x="275" y="985" width="50" height="20" as="geometry" />
        </mxCell>
        <mxCell id="uQF2bjW9X4T5isOUZy0i-143" value="&lt;font style=&quot;font-size: 27px&quot; face=&quot;Georgia&quot;&gt;the&lt;/font&gt;" style="text;html=1;align=center;verticalAlign=middle;resizable=0;points=[];autosize=1;strokeColor=none;fillColor=none;fontColor=#000000;" parent="1" vertex="1">
          <mxGeometry x="395" y="970" width="50" height="20" as="geometry" />
        </mxCell>
        <mxCell id="uQF2bjW9X4T5isOUZy0i-144" value="&lt;font style=&quot;font-size: 27px&quot; face=&quot;Georgia&quot;&gt;the&lt;/font&gt;" style="text;html=1;align=center;verticalAlign=middle;resizable=0;points=[];autosize=1;strokeColor=none;fillColor=none;fontColor=#000000;" parent="1" vertex="1">
          <mxGeometry x="395" y="900" width="50" height="20" as="geometry" />
        </mxCell>
        <mxCell id="uQF2bjW9X4T5isOUZy0i-145" value="&lt;font style=&quot;font-size: 27px&quot; face=&quot;Georgia&quot;&gt;these&lt;/font&gt;" style="text;html=1;align=center;verticalAlign=middle;resizable=0;points=[];autosize=1;strokeColor=none;fillColor=none;" parent="1" vertex="1">
          <mxGeometry x="374" y="850" width="80" height="20" as="geometry" />
        </mxCell>
        <mxCell id="uQF2bjW9X4T5isOUZy0i-146" value="&lt;font style=&quot;font-size: 27px&quot; face=&quot;Georgia&quot;&gt;there&lt;/font&gt;" style="text;html=1;align=center;verticalAlign=middle;resizable=0;points=[];autosize=1;strokeColor=none;fillColor=none;" parent="1" vertex="1">
          <mxGeometry x="374" y="1015" width="80" height="20" as="geometry" />
        </mxCell>
        <mxCell id="uQF2bjW9X4T5isOUZy0i-147" value="&lt;font style=&quot;font-size: 27px&quot; face=&quot;Georgia&quot;&gt;bed&lt;/font&gt;" style="text;html=1;align=center;verticalAlign=middle;resizable=0;points=[];autosize=1;strokeColor=none;fillColor=none;" parent="1" vertex="1">
          <mxGeometry x="516" y="870" width="60" height="20" as="geometry" />
        </mxCell>
        <mxCell id="uQF2bjW9X4T5isOUZy0i-148" value="&lt;font style=&quot;font-size: 27px&quot; face=&quot;Georgia&quot;&gt;bed&lt;/font&gt;" style="text;html=1;align=center;verticalAlign=middle;resizable=0;points=[];autosize=1;strokeColor=none;fillColor=none;" parent="1" vertex="1">
          <mxGeometry x="495" y="920" width="60" height="20" as="geometry" />
        </mxCell>
        <mxCell id="uQF2bjW9X4T5isOUZy0i-149" value="&lt;font style=&quot;font-size: 27px&quot; face=&quot;Georgia&quot;&gt;&amp;lt;/s&amp;gt;&lt;/font&gt;" style="text;html=1;align=center;verticalAlign=middle;resizable=0;points=[];autosize=1;strokeColor=none;fillColor=none;" parent="1" vertex="1">
          <mxGeometry x="615" y="915" width="70" height="20" as="geometry" />
        </mxCell>
        <mxCell id="uQF2bjW9X4T5isOUZy0i-150" value="&lt;font style=&quot;font-size: 27px&quot; face=&quot;Georgia&quot;&gt;bed&lt;/font&gt;" style="text;html=1;align=center;verticalAlign=middle;resizable=0;points=[];autosize=1;strokeColor=none;fillColor=none;" parent="1" vertex="1">
          <mxGeometry x="516" y="1000" width="60" height="20" as="geometry" />
        </mxCell>
        <mxCell id="uQF2bjW9X4T5isOUZy0i-151" value="" style="ellipse;whiteSpace=wrap;html=1;aspect=fixed;fontColor=#FF0000;fillColor=none;strokeColor=#000000;" parent="1" vertex="1">
          <mxGeometry x="1270" y="1095" width="30" height="30" as="geometry" />
        </mxCell>
        <mxCell id="uQF2bjW9X4T5isOUZy0i-152" style="rounded=0;orthogonalLoop=1;jettySize=auto;html=1;exitX=1;exitY=0.5;exitDx=0;exitDy=0;entryX=0;entryY=0.5;entryDx=0;entryDy=0;endArrow=none;endFill=0;fontColor=#FF0000;strokeColor=#000000;" parent="1" source="uQF2bjW9X4T5isOUZy0i-151" target="uQF2bjW9X4T5isOUZy0i-156" edge="1">
          <mxGeometry relative="1" as="geometry">
            <mxPoint x="1319.9999999999995" y="1074.9999999999998" as="sourcePoint" />
          </mxGeometry>
        </mxCell>
        <mxCell id="uQF2bjW9X4T5isOUZy0i-153" style="edgeStyle=none;rounded=0;orthogonalLoop=1;jettySize=auto;html=1;exitX=1;exitY=0.5;exitDx=0;exitDy=0;entryX=0;entryY=0.5;entryDx=0;entryDy=0;endArrow=none;endFill=0;fontColor=#FF0000;strokeColor=#000000;" parent="1" source="uQF2bjW9X4T5isOUZy0i-151" target="uQF2bjW9X4T5isOUZy0i-159" edge="1">
          <mxGeometry relative="1" as="geometry">
            <mxPoint x="1319.9999999999995" y="1154.9999999999998" as="sourcePoint" />
          </mxGeometry>
        </mxCell>
        <mxCell id="uQF2bjW9X4T5isOUZy0i-154" style="edgeStyle=none;rounded=0;orthogonalLoop=1;jettySize=auto;html=1;exitX=1;exitY=0.5;exitDx=0;exitDy=0;entryX=0;entryY=0.5;entryDx=0;entryDy=0;endArrow=none;endFill=0;fontColor=#FF0000;" parent="1" source="uQF2bjW9X4T5isOUZy0i-156" target="uQF2bjW9X4T5isOUZy0i-161" edge="1">
          <mxGeometry relative="1" as="geometry" />
        </mxCell>
        <mxCell id="uQF2bjW9X4T5isOUZy0i-155" style="edgeStyle=none;rounded=0;orthogonalLoop=1;jettySize=auto;html=1;exitX=1;exitY=0.5;exitDx=0;exitDy=0;entryX=0;entryY=0.5;entryDx=0;entryDy=0;endArrow=none;endFill=0;fontColor=#FF0000;strokeColor=#000000;" parent="1" source="uQF2bjW9X4T5isOUZy0i-156" target="uQF2bjW9X4T5isOUZy0i-164" edge="1">
          <mxGeometry relative="1" as="geometry" />
        </mxCell>
        <mxCell id="uQF2bjW9X4T5isOUZy0i-156" value="" style="ellipse;whiteSpace=wrap;html=1;aspect=fixed;fontColor=#FF0000;fillColor=none;strokeColor=#000000;" parent="1" vertex="1">
          <mxGeometry x="1384" y="1060" width="30" height="30" as="geometry" />
        </mxCell>
        <mxCell id="uQF2bjW9X4T5isOUZy0i-157" style="edgeStyle=none;rounded=0;orthogonalLoop=1;jettySize=auto;html=1;exitX=1;exitY=0.5;exitDx=0;exitDy=0;endArrow=none;endFill=0;entryX=0;entryY=0.5;entryDx=0;entryDy=0;fontColor=#FF0000;strokeColor=#000000;" parent="1" source="uQF2bjW9X4T5isOUZy0i-159" target="uQF2bjW9X4T5isOUZy0i-164" edge="1">
          <mxGeometry relative="1" as="geometry">
            <mxPoint x="1590" y="1140" as="targetPoint" />
          </mxGeometry>
        </mxCell>
        <mxCell id="uQF2bjW9X4T5isOUZy0i-158" style="edgeStyle=none;rounded=0;orthogonalLoop=1;jettySize=auto;html=1;exitX=1;exitY=0.5;exitDx=0;exitDy=0;entryX=0;entryY=0.5;entryDx=0;entryDy=0;endArrow=none;endFill=0;" parent="1" source="uQF2bjW9X4T5isOUZy0i-159" target="uQF2bjW9X4T5isOUZy0i-166" edge="1">
          <mxGeometry relative="1" as="geometry" />
        </mxCell>
        <mxCell id="uQF2bjW9X4T5isOUZy0i-159" value="" style="ellipse;whiteSpace=wrap;html=1;aspect=fixed;fontColor=#FF0000;fillColor=none;strokeColor=#000000;" parent="1" vertex="1">
          <mxGeometry x="1384" y="1140" width="30" height="30" as="geometry" />
        </mxCell>
        <mxCell id="uQF2bjW9X4T5isOUZy0i-160" style="edgeStyle=none;rounded=0;orthogonalLoop=1;jettySize=auto;html=1;exitX=1;exitY=0.5;exitDx=0;exitDy=0;entryX=0;entryY=0.5;entryDx=0;entryDy=0;fontSize=18;endArrow=none;endFill=0;" parent="1" source="uQF2bjW9X4T5isOUZy0i-161" target="uQF2bjW9X4T5isOUZy0i-168" edge="1">
          <mxGeometry relative="1" as="geometry" />
        </mxCell>
        <mxCell id="uQF2bjW9X4T5isOUZy0i-161" value="" style="ellipse;whiteSpace=wrap;html=1;aspect=fixed;" parent="1" vertex="1">
          <mxGeometry x="1520" y="1020" width="30" height="30" as="geometry" />
        </mxCell>
        <mxCell id="uQF2bjW9X4T5isOUZy0i-162" style="edgeStyle=none;rounded=0;orthogonalLoop=1;jettySize=auto;html=1;exitX=1;exitY=0.5;exitDx=0;exitDy=0;entryX=0;entryY=0.5;entryDx=0;entryDy=0;fontSize=18;endArrow=none;endFill=0;" parent="1" source="uQF2bjW9X4T5isOUZy0i-164" target="uQF2bjW9X4T5isOUZy0i-168" edge="1">
          <mxGeometry relative="1" as="geometry" />
        </mxCell>
        <mxCell id="uQF2bjW9X4T5isOUZy0i-163" style="edgeStyle=none;rounded=0;orthogonalLoop=1;jettySize=auto;html=1;exitX=1;exitY=0.5;exitDx=0;exitDy=0;entryX=0;entryY=0.5;entryDx=0;entryDy=0;fontSize=18;endArrow=none;endFill=0;" parent="1" source="uQF2bjW9X4T5isOUZy0i-164" target="uQF2bjW9X4T5isOUZy0i-170" edge="1">
          <mxGeometry relative="1" as="geometry" />
        </mxCell>
        <mxCell id="uQF2bjW9X4T5isOUZy0i-164" value="" style="ellipse;whiteSpace=wrap;html=1;aspect=fixed;fontColor=#FF0000;fillColor=none;strokeColor=#000000;" parent="1" vertex="1">
          <mxGeometry x="1520" y="1100" width="30" height="30" as="geometry" />
        </mxCell>
        <mxCell id="uQF2bjW9X4T5isOUZy0i-165" style="edgeStyle=none;rounded=0;orthogonalLoop=1;jettySize=auto;html=1;exitX=1;exitY=0.5;exitDx=0;exitDy=0;entryX=0;entryY=0.5;entryDx=0;entryDy=0;fontSize=18;endArrow=none;endFill=0;" parent="1" source="uQF2bjW9X4T5isOUZy0i-166" target="uQF2bjW9X4T5isOUZy0i-170" edge="1">
          <mxGeometry relative="1" as="geometry" />
        </mxCell>
        <mxCell id="uQF2bjW9X4T5isOUZy0i-166" value="" style="ellipse;whiteSpace=wrap;html=1;aspect=fixed;" parent="1" vertex="1">
          <mxGeometry x="1520" y="1180" width="30" height="30" as="geometry" />
        </mxCell>
        <mxCell id="uQF2bjW9X4T5isOUZy0i-167" style="edgeStyle=none;rounded=0;orthogonalLoop=1;jettySize=auto;html=1;exitX=1;exitY=0.5;exitDx=0;exitDy=0;entryX=0;entryY=0.5;entryDx=0;entryDy=0;fontSize=18;endArrow=none;endFill=0;" parent="1" source="uQF2bjW9X4T5isOUZy0i-168" target="uQF2bjW9X4T5isOUZy0i-171" edge="1">
          <mxGeometry relative="1" as="geometry" />
        </mxCell>
        <mxCell id="uQF2bjW9X4T5isOUZy0i-168" value="" style="ellipse;whiteSpace=wrap;html=1;aspect=fixed;" parent="1" vertex="1">
          <mxGeometry x="1640" y="1060" width="30" height="30" as="geometry" />
        </mxCell>
        <mxCell id="uQF2bjW9X4T5isOUZy0i-169" style="edgeStyle=none;rounded=0;orthogonalLoop=1;jettySize=auto;html=1;exitX=1;exitY=0.5;exitDx=0;exitDy=0;fontSize=18;endArrow=none;endFill=0;entryX=0;entryY=0.5;entryDx=0;entryDy=0;" parent="1" source="uQF2bjW9X4T5isOUZy0i-170" target="uQF2bjW9X4T5isOUZy0i-171" edge="1">
          <mxGeometry relative="1" as="geometry">
            <mxPoint x="1900" y="1140" as="targetPoint" />
          </mxGeometry>
        </mxCell>
        <mxCell id="uQF2bjW9X4T5isOUZy0i-170" value="" style="ellipse;whiteSpace=wrap;html=1;aspect=fixed;" parent="1" vertex="1">
          <mxGeometry x="1640" y="1140" width="30" height="30" as="geometry" />
        </mxCell>
        <mxCell id="uQF2bjW9X4T5isOUZy0i-171" value="" style="ellipse;whiteSpace=wrap;html=1;aspect=fixed;" parent="1" vertex="1">
          <mxGeometry x="1750" y="1100" width="30" height="30" as="geometry" />
        </mxCell>
        <mxCell id="uQF2bjW9X4T5isOUZy0i-172" value="&lt;font style=&quot;font-size: 27px&quot; face=&quot;Georgia&quot;&gt;have&lt;/font&gt;" style="text;html=1;align=center;verticalAlign=middle;resizable=0;points=[];autosize=1;strokeColor=none;fillColor=none;fontColor=#000000;" parent="1" vertex="1">
          <mxGeometry x="1310" y="1055" width="70" height="20" as="geometry" />
        </mxCell>
        <mxCell id="uQF2bjW9X4T5isOUZy0i-173" value="&lt;font style=&quot;font-size: 27px&quot; face=&quot;Georgia&quot;&gt;have&lt;/font&gt;" style="text;html=1;align=center;verticalAlign=middle;resizable=0;points=[];autosize=1;strokeColor=none;fillColor=none;fontColor=#000000;" parent="1" vertex="1">
          <mxGeometry x="1314" y="1150" width="70" height="20" as="geometry" />
        </mxCell>
        <mxCell id="uQF2bjW9X4T5isOUZy0i-174" value="&lt;font style=&quot;font-size: 27px&quot; face=&quot;Georgia&quot;&gt;a&lt;/font&gt;" style="text;html=1;align=center;verticalAlign=middle;resizable=0;points=[];autosize=1;strokeColor=none;fillColor=none;fontColor=#000000;" parent="1" vertex="1">
          <mxGeometry x="1460" y="1140" width="30" height="20" as="geometry" />
        </mxCell>
        <mxCell id="uQF2bjW9X4T5isOUZy0i-175" value="&lt;font style=&quot;font-size: 27px&quot; face=&quot;Georgia&quot;&gt;a&lt;/font&gt;" style="text;html=1;align=center;verticalAlign=middle;resizable=0;points=[];autosize=1;strokeColor=none;fillColor=none;fontColor=#000000;" parent="1" vertex="1">
          <mxGeometry x="1460" y="1070" width="30" height="20" as="geometry" />
        </mxCell>
        <mxCell id="uQF2bjW9X4T5isOUZy0i-176" value="&lt;font style=&quot;font-size: 27px&quot; face=&quot;Georgia&quot;&gt;an&lt;/font&gt;" style="text;html=1;align=center;verticalAlign=middle;resizable=0;points=[];autosize=1;strokeColor=none;fillColor=none;" parent="1" vertex="1">
          <mxGeometry x="1444" y="1020" width="50" height="20" as="geometry" />
        </mxCell>
        <mxCell id="uQF2bjW9X4T5isOUZy0i-177" value="&lt;font face=&quot;Georgia&quot;&gt;&lt;span style=&quot;font-size: 27px&quot;&gt;all&lt;/span&gt;&lt;/font&gt;" style="text;html=1;align=center;verticalAlign=middle;resizable=0;points=[];autosize=1;strokeColor=none;fillColor=none;" parent="1" vertex="1">
          <mxGeometry x="1449" y="1185" width="40" height="20" as="geometry" />
        </mxCell>
        <mxCell id="uQF2bjW9X4T5isOUZy0i-178" value="&lt;font style=&quot;font-size: 27px&quot; face=&quot;Georgia&quot;&gt;rest&lt;/font&gt;" style="text;html=1;align=center;verticalAlign=middle;resizable=0;points=[];autosize=1;strokeColor=none;fillColor=none;" parent="1" vertex="1">
          <mxGeometry x="1568" y="1025" width="60" height="20" as="geometry" />
        </mxCell>
        <mxCell id="uQF2bjW9X4T5isOUZy0i-179" value="&lt;font style=&quot;font-size: 27px&quot; face=&quot;Georgia&quot;&gt;rest&lt;/font&gt;" style="text;html=1;align=center;verticalAlign=middle;resizable=0;points=[];autosize=1;strokeColor=none;fillColor=none;" parent="1" vertex="1">
          <mxGeometry x="1550" y="1070" width="60" height="20" as="geometry" />
        </mxCell>
        <mxCell id="uQF2bjW9X4T5isOUZy0i-180" value="&lt;font style=&quot;font-size: 27px&quot; face=&quot;Georgia&quot;&gt;reset&lt;/font&gt;" style="text;html=1;align=center;verticalAlign=middle;resizable=0;points=[];autosize=1;strokeColor=none;fillColor=none;" parent="1" vertex="1">
          <mxGeometry x="1573" y="1110" width="70" height="20" as="geometry" />
        </mxCell>
        <mxCell id="uQF2bjW9X4T5isOUZy0i-181" value="&lt;font style=&quot;font-size: 27px&quot; face=&quot;Georgia&quot;&gt;reset&lt;/font&gt;" style="text;html=1;align=center;verticalAlign=middle;resizable=0;points=[];autosize=1;strokeColor=none;fillColor=none;" parent="1" vertex="1">
          <mxGeometry x="1570" y="1185" width="70" height="20" as="geometry" />
        </mxCell>
        <mxCell id="uQF2bjW9X4T5isOUZy0i-182" value="&lt;font style=&quot;font-size: 27px&quot; face=&quot;Georgia&quot;&gt;&amp;lt;/s&amp;gt;&lt;/font&gt;" style="text;html=1;align=center;verticalAlign=middle;resizable=0;points=[];autosize=1;strokeColor=none;fillColor=none;" parent="1" vertex="1">
          <mxGeometry x="1680" y="1065" width="70" height="20" as="geometry" />
        </mxCell>
        <mxCell id="uQF2bjW9X4T5isOUZy0i-183" value="&lt;font style=&quot;font-size: 27px&quot; face=&quot;Georgia&quot;&gt;&amp;lt;/s&amp;gt;&lt;/font&gt;" style="text;html=1;align=center;verticalAlign=middle;resizable=0;points=[];autosize=1;strokeColor=none;fillColor=none;" parent="1" vertex="1">
          <mxGeometry x="1680" y="1145" width="70" height="20" as="geometry" />
        </mxCell>
        <mxCell id="uQF2bjW9X4T5isOUZy0i-189" style="edgeStyle=none;rounded=0;orthogonalLoop=1;jettySize=auto;html=1;exitX=1;exitY=0.5;exitDx=0;exitDy=0;entryX=0;entryY=0.5;entryDx=0;entryDy=0;fontFamily=Georgia;fontSize=27;fontColor=#000000;endArrow=none;endFill=0;strokeColor=#000000;" parent="1" source="uQF2bjW9X4T5isOUZy0i-188" target="uQF2bjW9X4T5isOUZy0i-151" edge="1">
          <mxGeometry relative="1" as="geometry" />
        </mxCell>
        <mxCell id="uQF2bjW9X4T5isOUZy0i-188" value="" style="ellipse;whiteSpace=wrap;html=1;aspect=fixed;" parent="1" vertex="1">
          <mxGeometry x="1171" y="1095" width="30" height="30" as="geometry" />
        </mxCell>
        <mxCell id="uQF2bjW9X4T5isOUZy0i-190" value="&lt;font style=&quot;font-size: 27px&quot; face=&quot;Georgia&quot;&gt;&amp;lt;s&amp;gt;&lt;/font&gt;" style="text;html=1;align=center;verticalAlign=middle;resizable=0;points=[];autosize=1;strokeColor=none;fillColor=none;" parent="1" vertex="1">
          <mxGeometry x="1210" y="1085" width="60" height="20" as="geometry" />
        </mxCell>
        <mxCell id="uQF2bjW9X4T5isOUZy0i-191" value="&lt;font color=&quot;#000000&quot;&gt;&lt;font style=&quot;font-size: 35px&quot;&gt;Lattice Rescoring using Cross-Utterance n-gram History Clustering&lt;/font&gt;&lt;br&gt;&lt;/font&gt;" style="text;html=1;align=center;verticalAlign=middle;resizable=0;points=[];autosize=1;strokeColor=none;fillColor=none;fontSize=30;fontFamily=Georgia;fontColor=#FF0000;" parent="1" vertex="1">
          <mxGeometry x="425" y="690" width="1050" height="40" as="geometry" />
        </mxCell>
        <mxCell id="uQF2bjW9X4T5isOUZy0i-192" style="rounded=0;orthogonalLoop=1;jettySize=auto;html=1;exitX=1;exitY=0.5;exitDx=0;exitDy=0;entryX=0;entryY=0.5;entryDx=0;entryDy=0;endArrow=none;endFill=0;fontColor=#000000;strokeColor=#000000;fillColor=#e51400;" parent="1" source="uQF2bjW9X4T5isOUZy0i-194" target="uQF2bjW9X4T5isOUZy0i-197" edge="1">
          <mxGeometry relative="1" as="geometry" />
        </mxCell>
        <mxCell id="uQF2bjW9X4T5isOUZy0i-193" style="edgeStyle=none;rounded=0;orthogonalLoop=1;jettySize=auto;html=1;exitX=1;exitY=0.5;exitDx=0;exitDy=0;entryX=0;entryY=0.5;entryDx=0;entryDy=0;endArrow=none;endFill=0;fontColor=#000000;strokeColor=#000000;fillColor=#e51400;" parent="1" source="uQF2bjW9X4T5isOUZy0i-216" target="uQF2bjW9X4T5isOUZy0i-200" edge="1">
          <mxGeometry relative="1" as="geometry" />
        </mxCell>
        <mxCell id="uQF2bjW9X4T5isOUZy0i-194" value="" style="ellipse;whiteSpace=wrap;html=1;aspect=fixed;fontColor=#000000;strokeColor=#000000;fillColor=none;" parent="1" vertex="1">
          <mxGeometry x="235" y="1210" width="30" height="30" as="geometry" />
        </mxCell>
        <mxCell id="uQF2bjW9X4T5isOUZy0i-195" style="edgeStyle=none;rounded=0;orthogonalLoop=1;jettySize=auto;html=1;exitX=1;exitY=0.5;exitDx=0;exitDy=0;entryX=0;entryY=0.5;entryDx=0;entryDy=0;endArrow=none;endFill=0;" parent="1" source="uQF2bjW9X4T5isOUZy0i-197" target="uQF2bjW9X4T5isOUZy0i-202" edge="1">
          <mxGeometry relative="1" as="geometry" />
        </mxCell>
        <mxCell id="uQF2bjW9X4T5isOUZy0i-196" style="edgeStyle=none;rounded=0;orthogonalLoop=1;jettySize=auto;html=1;exitX=1;exitY=0.5;exitDx=0;exitDy=0;entryX=0;entryY=0.5;entryDx=0;entryDy=0;endArrow=none;endFill=0;strokeColor=#000000;fillColor=#e51400;fontColor=#000000;" parent="1" source="uQF2bjW9X4T5isOUZy0i-197" target="uQF2bjW9X4T5isOUZy0i-204" edge="1">
          <mxGeometry relative="1" as="geometry" />
        </mxCell>
        <mxCell id="uQF2bjW9X4T5isOUZy0i-197" value="" style="ellipse;whiteSpace=wrap;html=1;aspect=fixed;fontColor=#000000;strokeColor=#000000;fillColor=none;" parent="1" vertex="1">
          <mxGeometry x="335" y="1210" width="30" height="30" as="geometry" />
        </mxCell>
        <mxCell id="uQF2bjW9X4T5isOUZy0i-198" style="edgeStyle=none;rounded=0;orthogonalLoop=1;jettySize=auto;html=1;exitX=1;exitY=0.5;exitDx=0;exitDy=0;endArrow=none;endFill=0;entryX=0;entryY=0.5;entryDx=0;entryDy=0;strokeColor=#000000;fillColor=#e51400;fontColor=#000000;" parent="1" source="uQF2bjW9X4T5isOUZy0i-200" target="uQF2bjW9X4T5isOUZy0i-204" edge="1">
          <mxGeometry relative="1" as="geometry">
            <mxPoint x="535" y="1290" as="targetPoint" />
          </mxGeometry>
        </mxCell>
        <mxCell id="uQF2bjW9X4T5isOUZy0i-199" style="edgeStyle=none;rounded=0;orthogonalLoop=1;jettySize=auto;html=1;exitX=1;exitY=0.5;exitDx=0;exitDy=0;entryX=0;entryY=0.5;entryDx=0;entryDy=0;endArrow=none;endFill=0;" parent="1" source="uQF2bjW9X4T5isOUZy0i-200" target="uQF2bjW9X4T5isOUZy0i-206" edge="1">
          <mxGeometry relative="1" as="geometry" />
        </mxCell>
        <mxCell id="uQF2bjW9X4T5isOUZy0i-200" value="" style="ellipse;whiteSpace=wrap;html=1;aspect=fixed;fontColor=#000000;strokeColor=#000000;fillColor=none;" parent="1" vertex="1">
          <mxGeometry x="335" y="1290" width="30" height="30" as="geometry" />
        </mxCell>
        <mxCell id="uQF2bjW9X4T5isOUZy0i-201" style="edgeStyle=none;rounded=0;orthogonalLoop=1;jettySize=auto;html=1;exitX=1;exitY=0.5;exitDx=0;exitDy=0;entryX=0;entryY=0.5;entryDx=0;entryDy=0;fontSize=18;endArrow=none;endFill=0;" parent="1" source="uQF2bjW9X4T5isOUZy0i-202" target="uQF2bjW9X4T5isOUZy0i-211" edge="1">
          <mxGeometry relative="1" as="geometry" />
        </mxCell>
        <mxCell id="uQF2bjW9X4T5isOUZy0i-202" value="" style="ellipse;whiteSpace=wrap;html=1;aspect=fixed;" parent="1" vertex="1">
          <mxGeometry x="465" y="1170" width="30" height="30" as="geometry" />
        </mxCell>
        <mxCell id="uQF2bjW9X4T5isOUZy0i-203" style="edgeStyle=none;rounded=0;orthogonalLoop=1;jettySize=auto;html=1;exitX=1;exitY=0.5;exitDx=0;exitDy=0;entryX=0;entryY=0.5;entryDx=0;entryDy=0;fontSize=18;endArrow=none;endFill=0;" parent="1" source="uQF2bjW9X4T5isOUZy0i-204" target="uQF2bjW9X4T5isOUZy0i-211" edge="1">
          <mxGeometry relative="1" as="geometry" />
        </mxCell>
        <mxCell id="uQF2bjW9X4T5isOUZy0i-204" value="" style="ellipse;whiteSpace=wrap;html=1;aspect=fixed;strokeColor=#000000;fillColor=none;fontColor=#000000;" parent="1" vertex="1">
          <mxGeometry x="465" y="1250" width="30" height="30" as="geometry" />
        </mxCell>
        <mxCell id="uQF2bjW9X4T5isOUZy0i-205" style="edgeStyle=none;rounded=0;orthogonalLoop=1;jettySize=auto;html=1;exitX=1;exitY=0.5;exitDx=0;exitDy=0;entryX=0;entryY=0.5;entryDx=0;entryDy=0;fontSize=18;endArrow=none;endFill=0;" parent="1" source="uQF2bjW9X4T5isOUZy0i-206" target="uQF2bjW9X4T5isOUZy0i-211" edge="1">
          <mxGeometry relative="1" as="geometry">
            <mxPoint x="585" y="1305" as="targetPoint" />
          </mxGeometry>
        </mxCell>
        <mxCell id="uQF2bjW9X4T5isOUZy0i-206" value="" style="ellipse;whiteSpace=wrap;html=1;aspect=fixed;" parent="1" vertex="1">
          <mxGeometry x="465" y="1330" width="30" height="30" as="geometry" />
        </mxCell>
        <mxCell id="uQF2bjW9X4T5isOUZy0i-207" style="edgeStyle=none;rounded=0;orthogonalLoop=1;jettySize=auto;html=1;exitX=1;exitY=0.5;exitDx=0;exitDy=0;entryX=0;entryY=0.5;entryDx=0;entryDy=0;fontSize=18;endArrow=none;endFill=0;" parent="1" source="uQF2bjW9X4T5isOUZy0i-209" target="uQF2bjW9X4T5isOUZy0i-194" edge="1">
          <mxGeometry relative="1" as="geometry" />
        </mxCell>
        <mxCell id="uQF2bjW9X4T5isOUZy0i-208" style="rounded=0;orthogonalLoop=1;jettySize=auto;html=1;exitX=1;exitY=0.5;exitDx=0;exitDy=0;entryX=0;entryY=0.5;entryDx=0;entryDy=0;fontFamily=Georgia;fontSize=27;endArrow=none;endFill=0;" parent="1" source="uQF2bjW9X4T5isOUZy0i-209" target="uQF2bjW9X4T5isOUZy0i-216" edge="1">
          <mxGeometry relative="1" as="geometry" />
        </mxCell>
        <mxCell id="uQF2bjW9X4T5isOUZy0i-209" value="" style="ellipse;whiteSpace=wrap;html=1;aspect=fixed;" parent="1" vertex="1">
          <mxGeometry x="135" y="1250" width="30" height="30" as="geometry" />
        </mxCell>
        <mxCell id="uQF2bjW9X4T5isOUZy0i-210" style="edgeStyle=none;rounded=0;orthogonalLoop=1;jettySize=auto;html=1;exitX=1;exitY=0.5;exitDx=0;exitDy=0;entryX=0;entryY=0.5;entryDx=0;entryDy=0;fontSize=18;endArrow=none;endFill=0;" parent="1" source="uQF2bjW9X4T5isOUZy0i-211" target="uQF2bjW9X4T5isOUZy0i-212" edge="1">
          <mxGeometry relative="1" as="geometry" />
        </mxCell>
        <mxCell id="uQF2bjW9X4T5isOUZy0i-211" value="" style="ellipse;whiteSpace=wrap;html=1;aspect=fixed;" parent="1" vertex="1">
          <mxGeometry x="585" y="1250" width="30" height="30" as="geometry" />
        </mxCell>
        <mxCell id="uQF2bjW9X4T5isOUZy0i-212" value="" style="ellipse;whiteSpace=wrap;html=1;aspect=fixed;" parent="1" vertex="1">
          <mxGeometry x="695" y="1250" width="30" height="30" as="geometry" />
        </mxCell>
        <mxCell id="uQF2bjW9X4T5isOUZy0i-213" style="edgeStyle=orthogonalEdgeStyle;rounded=0;orthogonalLoop=1;jettySize=auto;html=1;exitX=1;exitY=0.5;exitDx=0;exitDy=0;entryX=0;entryY=0.5;entryDx=0;entryDy=0;fontFamily=Georgia;fontSize=27;endArrow=none;endFill=0;" parent="1" source="uQF2bjW9X4T5isOUZy0i-214" target="uQF2bjW9X4T5isOUZy0i-209" edge="1">
          <mxGeometry relative="1" as="geometry" />
        </mxCell>
        <mxCell id="uQF2bjW9X4T5isOUZy0i-214" value="" style="ellipse;whiteSpace=wrap;html=1;aspect=fixed;" parent="1" vertex="1">
          <mxGeometry x="45" y="1250" width="30" height="30" as="geometry" />
        </mxCell>
        <mxCell id="uQF2bjW9X4T5isOUZy0i-215" value="&lt;font style=&quot;font-size: 27px&quot; face=&quot;Georgia&quot;&gt;&amp;lt;s&amp;gt;&lt;/font&gt;" style="text;html=1;align=center;verticalAlign=middle;resizable=0;points=[];autosize=1;strokeColor=none;fillColor=none;" parent="1" vertex="1">
          <mxGeometry x="75" y="1240" width="60" height="20" as="geometry" />
        </mxCell>
        <mxCell id="uQF2bjW9X4T5isOUZy0i-216" value="" style="ellipse;whiteSpace=wrap;html=1;aspect=fixed;fontColor=#000000;strokeColor=#000000;fillColor=none;" parent="1" vertex="1">
          <mxGeometry x="235" y="1290" width="30" height="30" as="geometry" />
        </mxCell>
        <mxCell id="uQF2bjW9X4T5isOUZy0i-217" value="&lt;font style=&quot;font-size: 27px&quot; face=&quot;Georgia&quot;&gt;we&lt;/font&gt;" style="text;html=1;align=center;verticalAlign=middle;resizable=0;points=[];autosize=1;strokeColor=none;fillColor=none;" parent="1" vertex="1">
          <mxGeometry x="170" y="1215" width="50" height="20" as="geometry" />
        </mxCell>
        <mxCell id="uQF2bjW9X4T5isOUZy0i-218" value="&lt;font style=&quot;font-size: 27px&quot; face=&quot;Georgia&quot;&gt;he&lt;/font&gt;" style="text;html=1;align=center;verticalAlign=middle;resizable=0;points=[];autosize=1;strokeColor=none;fillColor=none;" parent="1" vertex="1">
          <mxGeometry x="175" y="1295" width="40" height="20" as="geometry" />
        </mxCell>
        <mxCell id="uQF2bjW9X4T5isOUZy0i-219" value="&lt;font style=&quot;font-size: 27px&quot; face=&quot;Georgia&quot;&gt;see&lt;/font&gt;" style="text;html=1;align=center;verticalAlign=middle;resizable=0;points=[];autosize=1;strokeColor=none;fillColor=none;fontColor=#000000;" parent="1" vertex="1">
          <mxGeometry x="275" y="1200" width="50" height="20" as="geometry" />
        </mxCell>
        <mxCell id="uQF2bjW9X4T5isOUZy0i-220" value="&lt;font style=&quot;font-size: 27px&quot; face=&quot;Georgia&quot;&gt;see&lt;/font&gt;" style="text;html=1;align=center;verticalAlign=middle;resizable=0;points=[];autosize=1;strokeColor=none;fillColor=none;fontColor=#000000;" parent="1" vertex="1">
          <mxGeometry x="275" y="1305" width="50" height="20" as="geometry" />
        </mxCell>
        <mxCell id="uQF2bjW9X4T5isOUZy0i-221" value="&lt;font style=&quot;font-size: 27px&quot; face=&quot;Georgia&quot;&gt;the&lt;/font&gt;" style="text;html=1;align=center;verticalAlign=middle;resizable=0;points=[];autosize=1;strokeColor=none;fillColor=none;fontColor=#000000;" parent="1" vertex="1">
          <mxGeometry x="395" y="1290" width="50" height="20" as="geometry" />
        </mxCell>
        <mxCell id="uQF2bjW9X4T5isOUZy0i-222" value="&lt;font style=&quot;font-size: 27px&quot; face=&quot;Georgia&quot;&gt;the&lt;/font&gt;" style="text;html=1;align=center;verticalAlign=middle;resizable=0;points=[];autosize=1;strokeColor=none;fillColor=none;fontColor=#000000;" parent="1" vertex="1">
          <mxGeometry x="395" y="1220" width="50" height="20" as="geometry" />
        </mxCell>
        <mxCell id="uQF2bjW9X4T5isOUZy0i-223" value="&lt;font style=&quot;font-size: 27px&quot; face=&quot;Georgia&quot;&gt;these&lt;/font&gt;" style="text;html=1;align=center;verticalAlign=middle;resizable=0;points=[];autosize=1;strokeColor=none;fillColor=none;" parent="1" vertex="1">
          <mxGeometry x="374" y="1170" width="80" height="20" as="geometry" />
        </mxCell>
        <mxCell id="uQF2bjW9X4T5isOUZy0i-224" value="&lt;font style=&quot;font-size: 27px&quot; face=&quot;Georgia&quot;&gt;there&lt;/font&gt;" style="text;html=1;align=center;verticalAlign=middle;resizable=0;points=[];autosize=1;strokeColor=none;fillColor=none;" parent="1" vertex="1">
          <mxGeometry x="374" y="1335" width="80" height="20" as="geometry" />
        </mxCell>
        <mxCell id="uQF2bjW9X4T5isOUZy0i-225" value="&lt;font style=&quot;font-size: 27px&quot; face=&quot;Georgia&quot;&gt;bed&lt;/font&gt;" style="text;html=1;align=center;verticalAlign=middle;resizable=0;points=[];autosize=1;strokeColor=none;fillColor=none;" parent="1" vertex="1">
          <mxGeometry x="516" y="1190" width="60" height="20" as="geometry" />
        </mxCell>
        <mxCell id="uQF2bjW9X4T5isOUZy0i-226" value="&lt;font style=&quot;font-size: 27px&quot; face=&quot;Georgia&quot;&gt;bed&lt;/font&gt;" style="text;html=1;align=center;verticalAlign=middle;resizable=0;points=[];autosize=1;strokeColor=none;fillColor=none;" parent="1" vertex="1">
          <mxGeometry x="495" y="1240" width="60" height="20" as="geometry" />
        </mxCell>
        <mxCell id="uQF2bjW9X4T5isOUZy0i-227" value="&lt;font style=&quot;font-size: 27px&quot; face=&quot;Georgia&quot;&gt;&amp;lt;/s&amp;gt;&lt;/font&gt;" style="text;html=1;align=center;verticalAlign=middle;resizable=0;points=[];autosize=1;strokeColor=none;fillColor=none;" parent="1" vertex="1">
          <mxGeometry x="615" y="1235" width="70" height="20" as="geometry" />
        </mxCell>
        <mxCell id="uQF2bjW9X4T5isOUZy0i-228" value="&lt;font style=&quot;font-size: 27px&quot; face=&quot;Georgia&quot;&gt;bed&lt;/font&gt;" style="text;html=1;align=center;verticalAlign=middle;resizable=0;points=[];autosize=1;strokeColor=none;fillColor=none;" parent="1" vertex="1">
          <mxGeometry x="516" y="1320" width="60" height="20" as="geometry" />
        </mxCell>
        <mxCell id="uQF2bjW9X4T5isOUZy0i-229" value="" style="rounded=1;whiteSpace=wrap;html=1;fontFamily=Georgia;fontSize=27;fontColor=#000000;strokeColor=#000000;fillColor=none;dashed=1;" parent="1" vertex="1">
          <mxGeometry x="40" y="830" width="710" height="235" as="geometry" />
        </mxCell>
        <mxCell id="uQF2bjW9X4T5isOUZy0i-230" value="" style="rounded=1;whiteSpace=wrap;html=1;fontFamily=Georgia;fontSize=27;fontColor=#000000;strokeColor=#000000;fillColor=none;dashed=1;" parent="1" vertex="1">
          <mxGeometry x="30" y="1145" width="710" height="235" as="geometry" />
        </mxCell>
        <mxCell id="uQF2bjW9X4T5isOUZy0i-231" value="" style="shape=flexArrow;endArrow=classic;html=1;rounded=0;fontFamily=Georgia;fontSize=27;fontColor=#000000;strokeColor=#000000;" parent="1" edge="1">
          <mxGeometry width="50" height="50" relative="1" as="geometry">
            <mxPoint x="780" y="1267.5" as="sourcePoint" />
            <mxPoint x="849" y="1222.5" as="targetPoint" />
          </mxGeometry>
        </mxCell>
        <mxCell id="uQF2bjW9X4T5isOUZy0i-232" value="" style="shape=flexArrow;endArrow=classic;html=1;rounded=0;fontFamily=Georgia;fontSize=27;fontColor=#000000;strokeColor=#000000;" parent="1" edge="1">
          <mxGeometry width="50" height="50" relative="1" as="geometry">
            <mxPoint x="775" y="919.9999999999995" as="sourcePoint" />
            <mxPoint x="844" y="964.9999999999995" as="targetPoint" />
          </mxGeometry>
        </mxCell>
        <mxCell id="uQF2bjW9X4T5isOUZy0i-233" value="GNN" style="rounded=1;whiteSpace=wrap;html=1;fontFamily=Georgia;fontSize=27;fontColor=#000000;strokeColor=#000000;fillColor=none;" parent="1" vertex="1">
          <mxGeometry x="867.5" y="1180" width="182.5" height="60" as="geometry" />
        </mxCell>
        <mxCell id="uQF2bjW9X4T5isOUZy0i-234" value="LatticeRNN" style="rounded=1;whiteSpace=wrap;html=1;fontFamily=Georgia;fontSize=27;fontColor=#000000;strokeColor=#000000;fillColor=none;" parent="1" vertex="1">
          <mxGeometry x="870" y="960" width="180" height="60" as="geometry" />
        </mxCell>
        <mxCell id="uQF2bjW9X4T5isOUZy0i-237" value="(a)" style="text;html=1;align=center;verticalAlign=middle;resizable=0;points=[];autosize=1;strokeColor=none;fillColor=none;fontSize=27;fontFamily=Georgia;fontColor=#000000;" parent="1" vertex="1">
          <mxGeometry x="710" y="1075" width="50" height="40" as="geometry" />
        </mxCell>
        <mxCell id="uQF2bjW9X4T5isOUZy0i-238" value="(b)" style="text;html=1;align=center;verticalAlign=middle;resizable=0;points=[];autosize=1;strokeColor=none;fillColor=none;fontSize=27;fontFamily=Georgia;fontColor=#000000;" parent="1" vertex="1">
          <mxGeometry x="710" y="1400" width="50" height="40" as="geometry" />
        </mxCell>
        <mxCell id="uQF2bjW9X4T5isOUZy0i-239" value="" style="endArrow=open;html=1;rounded=0;fontFamily=Georgia;fontSize=27;fontColor=#000000;strokeColor=#000000;endFill=0;" parent="1" edge="1">
          <mxGeometry width="50" height="50" relative="1" as="geometry">
            <mxPoint x="1060" y="1190" as="sourcePoint" />
            <mxPoint x="1160" y="1120" as="targetPoint" />
          </mxGeometry>
        </mxCell>
        <mxCell id="uQF2bjW9X4T5isOUZy0i-240" value="" style="endArrow=open;html=1;rounded=0;fontFamily=Georgia;fontSize=27;fontColor=#000000;strokeColor=#000000;endFill=0;" parent="1" edge="1">
          <mxGeometry width="50" height="50" relative="1" as="geometry">
            <mxPoint x="1060" y="1020" as="sourcePoint" />
            <mxPoint x="1160" y="1100" as="targetPoint" />
          </mxGeometry>
        </mxCell>
        <mxCell id="uQF2bjW9X4T5isOUZy0i-241" value="&lt;font color=&quot;#000000&quot;&gt;&lt;font style=&quot;font-size: 35px&quot;&gt;Lattice Rescoring using Cross-Utterace Lattice Encoding&lt;/font&gt;&lt;br&gt;&lt;/font&gt;" style="text;html=1;align=center;verticalAlign=middle;resizable=0;points=[];autosize=1;strokeColor=none;fillColor=none;fontSize=30;fontFamily=Georgia;fontColor=#FF0000;" parent="1" vertex="1">
          <mxGeometry x="505" y="1500" width="890" height="40" as="geometry" />
        </mxCell>
        <mxCell id="LwhTmWAjGXsf5G4LRFbt-55" style="edgeStyle=none;rounded=0;orthogonalLoop=1;jettySize=auto;html=1;exitX=1;exitY=0.5;exitDx=0;exitDy=0;fontColor=#FF0000;endArrow=none;endFill=0;strokeColor=#000000;entryX=0;entryY=0.5;entryDx=0;entryDy=0;" edge="1" parent="1" source="LwhTmWAjGXsf5G4LRFbt-5" target="LwhTmWAjGXsf5G4LRFbt-28">
          <mxGeometry relative="1" as="geometry">
            <mxPoint x="1100" y="550" as="targetPoint" />
          </mxGeometry>
        </mxCell>
        <mxCell id="LwhTmWAjGXsf5G4LRFbt-5" value="" style="ellipse;whiteSpace=wrap;html=1;aspect=fixed;fillColor=none;" vertex="1" parent="1">
          <mxGeometry x="996" y="620" width="30" height="30" as="geometry" />
        </mxCell>
        <mxCell id="LwhTmWAjGXsf5G4LRFbt-54" style="edgeStyle=none;rounded=0;orthogonalLoop=1;jettySize=auto;html=1;exitX=1;exitY=0.5;exitDx=0;exitDy=0;fontColor=#FF0000;endArrow=none;endFill=0;strokeColor=#FF0000;entryX=0;entryY=0.5;entryDx=0;entryDy=0;" edge="1" parent="1" source="LwhTmWAjGXsf5G4LRFbt-6" target="LwhTmWAjGXsf5G4LRFbt-28">
          <mxGeometry relative="1" as="geometry">
            <mxPoint x="1090" y="550" as="targetPoint" />
          </mxGeometry>
        </mxCell>
        <mxCell id="LwhTmWAjGXsf5G4LRFbt-6" value="" style="ellipse;whiteSpace=wrap;html=1;aspect=fixed;fontColor=#FF0000;fillColor=#FF0000;strokeColor=#FF0000;" vertex="1" parent="1">
          <mxGeometry x="996" y="561" width="30" height="30" as="geometry" />
        </mxCell>
        <mxCell id="LwhTmWAjGXsf5G4LRFbt-35" style="edgeStyle=none;rounded=0;orthogonalLoop=1;jettySize=auto;html=1;exitX=1;exitY=0.5;exitDx=0;exitDy=0;entryX=0;entryY=0.5;entryDx=0;entryDy=0;fontColor=#FF0000;endArrow=none;endFill=0;strokeColor=#000000;" edge="1" parent="1" source="LwhTmWAjGXsf5G4LRFbt-7" target="LwhTmWAjGXsf5G4LRFbt-28">
          <mxGeometry relative="1" as="geometry" />
        </mxCell>
        <mxCell id="LwhTmWAjGXsf5G4LRFbt-7" value="" style="ellipse;whiteSpace=wrap;html=1;aspect=fixed;fillColor=none;" vertex="1" parent="1">
          <mxGeometry x="996" y="416" width="30" height="30" as="geometry" />
        </mxCell>
        <mxCell id="LwhTmWAjGXsf5G4LRFbt-10" value="&lt;font style=&quot;font-size: 27px&quot; face=&quot;Georgia&quot;&gt;have&lt;/font&gt;" style="text;html=1;align=center;verticalAlign=middle;resizable=0;points=[];autosize=1;strokeColor=none;fillColor=none;fontColor=#000000;" vertex="1" parent="1">
          <mxGeometry x="1050" y="450" width="70" height="20" as="geometry" />
        </mxCell>
        <mxCell id="LwhTmWAjGXsf5G4LRFbt-17" style="edgeStyle=none;rounded=0;orthogonalLoop=1;jettySize=auto;html=1;exitX=1;exitY=0.5;exitDx=0;exitDy=0;entryX=0;entryY=0.5;entryDx=0;entryDy=0;fontColor=#000000;endArrow=none;endFill=0;strokeColor=#000000;" edge="1" parent="1" source="LwhTmWAjGXsf5G4LRFbt-15" target="LwhTmWAjGXsf5G4LRFbt-7">
          <mxGeometry relative="1" as="geometry" />
        </mxCell>
        <mxCell id="LwhTmWAjGXsf5G4LRFbt-15" value="" style="ellipse;whiteSpace=wrap;html=1;aspect=fixed;" vertex="1" parent="1">
          <mxGeometry x="850" y="416" width="30" height="30" as="geometry" />
        </mxCell>
        <mxCell id="LwhTmWAjGXsf5G4LRFbt-23" style="edgeStyle=none;rounded=0;orthogonalLoop=1;jettySize=auto;html=1;exitX=1;exitY=0.5;exitDx=0;exitDy=0;entryX=0;entryY=0.5;entryDx=0;entryDy=0;fontColor=#FF0000;endArrow=none;endFill=0;strokeColor=#FF0000;" edge="1" parent="1" source="LwhTmWAjGXsf5G4LRFbt-19" target="LwhTmWAjGXsf5G4LRFbt-21">
          <mxGeometry relative="1" as="geometry" />
        </mxCell>
        <mxCell id="LwhTmWAjGXsf5G4LRFbt-19" value="" style="ellipse;whiteSpace=wrap;html=1;aspect=fixed;fontColor=#FF0000;fillColor=#FF0000;strokeColor=#FF0000;" vertex="1" parent="1">
          <mxGeometry x="730" y="561" width="30" height="30" as="geometry" />
        </mxCell>
        <mxCell id="LwhTmWAjGXsf5G4LRFbt-20" value="&lt;font style=&quot;font-size: 27px&quot; face=&quot;Georgia&quot;&gt;&amp;lt;/s&amp;gt;\&amp;lt;s&amp;gt;&lt;/font&gt;" style="text;html=1;align=center;verticalAlign=middle;resizable=0;points=[];autosize=1;strokeColor=none;fillColor=none;fontColor=#FF0000;" vertex="1" parent="1">
          <mxGeometry x="873" y="463" width="130" height="20" as="geometry" />
        </mxCell>
        <mxCell id="LwhTmWAjGXsf5G4LRFbt-24" style="edgeStyle=none;rounded=0;orthogonalLoop=1;jettySize=auto;html=1;exitX=1;exitY=0.5;exitDx=0;exitDy=0;entryX=0;entryY=0.5;entryDx=0;entryDy=0;fontColor=#FF0000;endArrow=none;endFill=0;strokeColor=#FF0000;" edge="1" parent="1" source="LwhTmWAjGXsf5G4LRFbt-21" target="LwhTmWAjGXsf5G4LRFbt-6">
          <mxGeometry relative="1" as="geometry" />
        </mxCell>
        <mxCell id="LwhTmWAjGXsf5G4LRFbt-21" value="" style="ellipse;whiteSpace=wrap;html=1;aspect=fixed;fontColor=#FF0000;fillColor=#FF0000;strokeColor=#FF0000;" vertex="1" parent="1">
          <mxGeometry x="854" y="561" width="30" height="30" as="geometry" />
        </mxCell>
        <mxCell id="LwhTmWAjGXsf5G4LRFbt-25" style="edgeStyle=none;rounded=0;orthogonalLoop=1;jettySize=auto;html=1;exitX=1;exitY=0.5;exitDx=0;exitDy=0;entryX=0;entryY=0.5;entryDx=0;entryDy=0;fontColor=#FF0000;endArrow=none;endFill=0;strokeColor=#000000;" edge="1" parent="1" source="LwhTmWAjGXsf5G4LRFbt-22" target="LwhTmWAjGXsf5G4LRFbt-5">
          <mxGeometry relative="1" as="geometry" />
        </mxCell>
        <mxCell id="LwhTmWAjGXsf5G4LRFbt-22" value="" style="ellipse;whiteSpace=wrap;html=1;aspect=fixed;" vertex="1" parent="1">
          <mxGeometry x="854" y="620" width="30" height="30" as="geometry" />
        </mxCell>
        <mxCell id="LwhTmWAjGXsf5G4LRFbt-26" value="&lt;font style=&quot;font-size: 27px&quot; face=&quot;Georgia&quot;&gt;bed&lt;/font&gt;" style="text;html=1;align=center;verticalAlign=middle;resizable=0;points=[];autosize=1;strokeColor=none;fillColor=none;fontColor=#FF0000;" vertex="1" parent="1">
          <mxGeometry x="775" y="551" width="60" height="20" as="geometry" />
        </mxCell>
        <mxCell id="LwhTmWAjGXsf5G4LRFbt-27" value="&lt;font style=&quot;font-size: 27px&quot; face=&quot;Georgia&quot;&gt;bed&lt;/font&gt;" style="text;html=1;align=center;verticalAlign=middle;resizable=0;points=[];autosize=1;strokeColor=none;fillColor=none;fontColor=#000000;" vertex="1" parent="1">
          <mxGeometry x="775" y="611" width="60" height="20" as="geometry" />
        </mxCell>
        <mxCell id="LwhTmWAjGXsf5G4LRFbt-34" style="edgeStyle=none;rounded=0;orthogonalLoop=1;jettySize=auto;html=1;exitX=1;exitY=0.5;exitDx=0;exitDy=0;entryX=0;entryY=0.5;entryDx=0;entryDy=0;fontColor=#FF0000;endArrow=none;endFill=0;strokeColor=#000000;" edge="1" parent="1" source="LwhTmWAjGXsf5G4LRFbt-28" target="uQF2bjW9X4T5isOUZy0i-75">
          <mxGeometry relative="1" as="geometry" />
        </mxCell>
        <mxCell id="LwhTmWAjGXsf5G4LRFbt-28" value="" style="ellipse;whiteSpace=wrap;html=1;aspect=fixed;fillColor=none;" vertex="1" parent="1">
          <mxGeometry x="1111" y="520" width="30" height="30" as="geometry" />
        </mxCell>
        <mxCell id="LwhTmWAjGXsf5G4LRFbt-38" value="&lt;font style=&quot;font-size: 27px&quot; face=&quot;Georgia&quot;&gt;&amp;lt;/s&amp;gt;\&amp;lt;s&amp;gt;&lt;/font&gt;" style="text;html=1;align=center;verticalAlign=middle;resizable=0;points=[];autosize=1;strokeColor=none;fillColor=none;fontColor=#000000;" vertex="1" parent="1">
          <mxGeometry x="875" y="610" width="130" height="20" as="geometry" />
        </mxCell>
        <mxCell id="LwhTmWAjGXsf5G4LRFbt-39" value="&lt;font style=&quot;font-size: 27px&quot; face=&quot;Georgia&quot;&gt;&amp;lt;/s&amp;gt;\&amp;lt;s&amp;gt;&lt;/font&gt;" style="text;html=1;align=center;verticalAlign=middle;resizable=0;points=[];autosize=1;strokeColor=none;fillColor=none;fontColor=#FF0000;" vertex="1" parent="1">
          <mxGeometry x="873" y="551" width="130" height="20" as="geometry" />
        </mxCell>
        <mxCell id="LwhTmWAjGXsf5G4LRFbt-41" value="&lt;font style=&quot;font-size: 27px&quot; face=&quot;Georgia&quot;&gt;a&lt;/font&gt;" style="text;html=1;align=center;verticalAlign=middle;resizable=0;points=[];autosize=1;strokeColor=none;fillColor=none;fontColor=#000000;" vertex="1" parent="1">
          <mxGeometry x="1150" y="507" width="30" height="20" as="geometry" />
        </mxCell>
        <mxCell id="LwhTmWAjGXsf5G4LRFbt-46" style="edgeStyle=none;rounded=0;orthogonalLoop=1;jettySize=auto;html=1;exitX=1;exitY=0.5;exitDx=0;exitDy=0;entryX=0;entryY=0.5;entryDx=0;entryDy=0;fontColor=#000000;endArrow=none;endFill=0;strokeColor=#FF0000;" edge="1" parent="1" source="LwhTmWAjGXsf5G4LRFbt-44" target="uQF2bjW9X4T5isOUZy0i-33">
          <mxGeometry relative="1" as="geometry" />
        </mxCell>
        <mxCell id="LwhTmWAjGXsf5G4LRFbt-44" value="" style="ellipse;whiteSpace=wrap;html=1;aspect=fixed;fontColor=#FF0000;fillColor=#FF0000;strokeColor=#FF0000;" vertex="1" parent="1">
          <mxGeometry x="609" y="474" width="30" height="30" as="geometry" />
        </mxCell>
        <mxCell id="LwhTmWAjGXsf5G4LRFbt-47" style="edgeStyle=none;rounded=0;orthogonalLoop=1;jettySize=auto;html=1;exitX=1;exitY=0.5;exitDx=0;exitDy=0;entryX=0;entryY=0.5;entryDx=0;entryDy=0;fontColor=#000000;endArrow=none;endFill=0;strokeColor=#FF0000;" edge="1" parent="1" source="LwhTmWAjGXsf5G4LRFbt-45" target="LwhTmWAjGXsf5G4LRFbt-19">
          <mxGeometry relative="1" as="geometry" />
        </mxCell>
        <mxCell id="LwhTmWAjGXsf5G4LRFbt-45" value="" style="ellipse;whiteSpace=wrap;html=1;aspect=fixed;fontColor=#FF0000;fillColor=#FF0000;strokeColor=#FF0000;" vertex="1" parent="1">
          <mxGeometry x="609" y="561" width="30" height="30" as="geometry" />
        </mxCell>
        <mxCell id="LwhTmWAjGXsf5G4LRFbt-51" value="&lt;font style=&quot;font-size: 27px&quot; face=&quot;Georgia&quot;&gt;see&lt;/font&gt;" style="text;html=1;align=center;verticalAlign=middle;resizable=0;points=[];autosize=1;fillColor=none;fontColor=#FF0000;" vertex="1" parent="1">
          <mxGeometry x="545" y="565" width="50" height="20" as="geometry" />
        </mxCell>
        <mxCell id="LwhTmWAjGXsf5G4LRFbt-52" value="&lt;font style=&quot;font-size: 27px&quot; face=&quot;Georgia&quot;&gt;see&lt;/font&gt;" style="text;html=1;align=center;verticalAlign=middle;resizable=0;points=[];autosize=1;fillColor=none;fontColor=#FF0000;" vertex="1" parent="1">
          <mxGeometry x="545" y="482" width="50" height="20" as="geometry" />
        </mxCell>
        <mxCell id="LwhTmWAjGXsf5G4LRFbt-56" value="&lt;font style=&quot;font-size: 27px&quot; face=&quot;Georgia&quot;&gt;have&lt;/font&gt;" style="text;html=1;align=center;verticalAlign=middle;resizable=0;points=[];autosize=1;strokeColor=none;fillColor=none;fontColor=#FF0000;" vertex="1" parent="1">
          <mxGeometry x="1007" y="507" width="70" height="20" as="geometry" />
        </mxCell>
        <mxCell id="LwhTmWAjGXsf5G4LRFbt-57" value="&lt;font style=&quot;font-size: 27px&quot; face=&quot;Georgia&quot;&gt;have&lt;/font&gt;" style="text;html=1;align=center;verticalAlign=middle;resizable=0;points=[];autosize=1;strokeColor=none;fillColor=none;fontColor=#FF0000;" vertex="1" parent="1">
          <mxGeometry x="1006" y="540" width="70" height="20" as="geometry" />
        </mxCell>
        <mxCell id="LwhTmWAjGXsf5G4LRFbt-58" value="&lt;font style=&quot;font-size: 27px&quot; face=&quot;Georgia&quot;&gt;have&lt;/font&gt;" style="text;html=1;align=center;verticalAlign=middle;resizable=0;points=[];autosize=1;strokeColor=none;fillColor=none;fontColor=#000000;" vertex="1" parent="1">
          <mxGeometry x="1050" y="601" width="70" height="20" as="geometry" />
        </mxCell>
      </root>
    </mxGraphModel>
  </diagram>
</mxfile>
